<?xml version="1.0" encoding="utf-8"?>
<!-- Generator: Adobe Illustrator 27.5.0, SVG Export Plug-In . SVG Version: 6.00 Build 0)  -->
<svg version="1.1" id="Layer_2" xmlns="http://www.w3.org/2000/svg" xmlns:xlink="http://www.w3.org/1999/xlink" x="0px" y="0px"
	 viewBox="0 0 2800 2000" style="enable-background:new 0 0 2800 2000;" xml:space="preserve">
<rect y="0" style="fill:#FFFFFF;" width="2800" height="2000"/>
<g>
	<path style="fill:#E7F2F0;" d="M277.803,971.623c1.282,4.68,4.95,8.324,8.857,11.202c16.4,12.083,37.929,14.017,58.262,15.266
		c87.918,5.403,176.256,5.996,263.997-1.77c81.673-7.229,163.992-21.677,245.104-9.696c12.571,1.857,25.132,4.369,36.931,9.086
		c11.333,4.531,22.208,11.15,34.382,12.036c1.461,0.106,3.025,0.103,4.265-0.677c2.679-1.681,2.276-5.699,1.147-8.653
		c-4.745-12.425-15.971-21.148-27.414-27.925c-57.613-34.12-128.856-33.741-195.542-27.706
		c-66.686,6.036-134.965,16.604-199.744-0.343c-24.169-6.323-47.487-16.42-72.294-19.378
		C412.972,920.348,264.136,921.734,277.803,971.623z"/>
	<ellipse style="fill:#E7F2F0;" cx="771.461" cy="847.116" rx="289.407" ry="54.469"/>
	<path style="fill:#335614;" d="M254.239,858.894c-7.631-6.11-11.658-15.522-17.235-23.551
		c-5.577-8.029-14.524-15.373-24.141-13.613c9.798-3.199,21.126-3.088,29.823,2.444c7.554,4.804,12.211,12.941,18.313,19.491
		c6.103,6.55,15.518,11.805,23.77,8.334c-13.713-6.042-22.657-19.693-27.758-33.783c-5.102-14.09-7.119-29.105-11.488-43.44
		c11.709,5.646,16.679,19.245,22.617,30.808c5.937,11.564,16.994,23.455,29.685,20.642c-9.615-9.743-7.356-25.788-3.392-38.89
		c3.964-13.102,8.887-27.657,2.776-39.906c8.062,5.348,10.134,16.127,11.02,25.76c0.886,9.633,1.697,20.244,8.547,27.075
		c-0.422-9.006-0.757-18.457,3.21-26.553c4.564-9.315,13.915-15.097,22.093-21.48c8.177-6.382,16.113-15.14,15.633-25.502
		c5.306,2.907,6.654,10.301,4.676,16.019c-1.978,5.718-6.407,10.181-10.57,14.571c-4.162,4.391-8.342,9.207-9.587,15.127
		c-1.59,7.558,1.897,15.119,3.768,22.613c4.262,17.069-0.348,36.103-11.948,49.331c-10.489,11.962-24.603,17.146-40.04,18.618
		C280.462,864.303,265.926,868.251,254.239,858.894z"/>
	<g>
		<path style="fill:#D3B594;" d="M1005.042,814.693V774.24l-231.283-29.091l-231.283,31.55v37.995c0,0-1.951,18.3,68.199,42.479
			c95.924,33.062,251.801,22.18,326.168,0C1007.947,835.965,1005.042,814.693,1005.042,814.693z"/>
		<path style="fill:#BFA388;" d="M936.673,857.172c71.104-21.207,68.198-42.479,68.198-42.479V774.24l-106.038-13.337
			c-0.167,0.1-0.337,0.197-0.504,0.298c-12.16,7.341-23.846,13.948-24.761,29.075c-0.962,15.886,7.699,35.172,0.802,50.363
			c-4.246,9.351-15.406,13.044-25.431,15.277c-76.574,17.052-156.717,6.572-232.972-11.857
			c-23.813-5.755-47.982-12.524-68.025-26.612c-1.648-1.158-3.634-2.322-5.636-3.091v0.339c0,0-1.951,18.3,68.199,42.479
			C706.429,890.234,862.306,879.352,936.673,857.172z"/>
		<path style="fill:#D3B594;" d="M1244.973,356.656H771.446H302.519c0,0-7.248,96.707,46.811,213.431
			c81.077,175.061,193.146,206.612,193.146,206.612l228.97,4.421l228.97-4.421c0,0,112.069-31.55,193.146-206.612
			C1247.621,453.363,1244.973,356.656,1244.973,356.656z"/>
		<path style="fill:#BFA388;" d="M1244.81,356.656h-168.175c0,0,21.85,98.247-37.769,212.232
			C972.89,695.032,910.371,730.129,833.903,756.143c-94.879,32.278-205.968,24.175-205.968,24.175s111.393,25.448,200.707,25.448
			c88.823,0,171.61-29.068,171.61-29.068s112.069-31.55,193.146-206.612C1247.458,453.363,1244.81,356.656,1244.81,356.656z"/>
		<path style="fill:#F7D3B0;" d="M302.519,356.656c4.136,70.334,177.46,131.896,471.24,131.896
			c303.347,0,468.816-46.763,471.214-131.896c2.398-85.133-161.872-147.578-464.033-146.285
			C526.461,211.461,313.31,229.557,302.519,356.656L302.519,356.656z"/>
		<path style="fill:#E2BFA3;" d="M322.921,355.879c3.957,62.751,169.778,117.674,450.843,117.674
			c290.217,0,448.524-41.721,450.818-117.674c2.294-75.954-154.865-131.666-443.948-130.512
			C537.17,226.339,333.246,242.484,322.921,355.879L322.921,355.879z"/>
		<path style="opacity:0.38;fill:#FFFFFF;" d="M415.745,504.976c-4.875,12.97-0.737,27.455,4.126,40.43
			c13.329,35.557,31.999,68.929,53.116,100.488c15.188,22.696,34.194,46.175,61.029,51.242c9.42,1.778,19.56,0.983,27.947-3.659
			c8.387-4.643,14.694-13.485,14.924-23.069c0.234-9.755-5.442-18.526-10.573-26.827c-12.544-20.295-23.117-42.079-28.395-65.347
			c-3.507-15.459-4.797-31.86-12.732-45.586C511.581,509.11,431.032,464.298,415.745,504.976z"/>
		<path style="opacity:0.38;fill:#FFFFFF;" d="M578.06,792.097c-2.216,0.068-4.527,0.283-6.407,1.458
			c-3.92,2.451-4.393,8.339-2.152,12.382c2.241,4.043,6.402,6.606,10.504,8.739c17.014,8.847,35.925,13.367,54.794,16.791
			c7.24,1.313,14.966,2.431,21.747-0.425c6.782-2.855,11.763-11.233,8.37-17.763c-3.224-6.202-11.433-7.324-18.393-7.967
			C623.818,803.216,600.281,791.41,578.06,792.097z"/>
		<path style="fill:#CEAD97;" d="M322.921,356.099c3.171,50.304,110.367,95.575,297.559,111.557
			c-10.05-6.818-19.828-14.038-29.286-21.651c-57.919-46.62-104.383-107.535-133.631-175.918c-2.46-5.752-5.144-11.788-7.698-17.966
			C375.429,270.969,327.775,302.784,322.921,356.099z"/>
	</g>
	<path style="fill:#E0604B;" d="M1208.733,391.89c-45.313-54.852-193.332-91.746-429.129-90.805
		c-207.746,0.829-386.697,12.709-441.149,86.627c48.67,48.387,202.178,85.842,434.279,85.842
		C1013.192,473.554,1163.094,444.912,1208.733,391.89z"/>
	<path style="fill:#C6402E;" d="M479.093,302.117c-1.937-6.324-3.632-13.326-0.964-19.378c3.237-7.344,11.737-10.705,19.604-12.291
		c18.216-3.674,37.567-1.806,54.975-8.311c5.514-2.061,10.734-4.934,16.415-6.476c5.681-1.542,12.16-1.578,17.018,1.748
		c3.507,2.4,5.734,6.226,7.7,9.994c6.816,13.064,11.884,26.953,17.731,40.479c13.32,30.817,31.426,60.608,58.345,80.67
		c-19.031,17.028-41.98,20.523-68.986,23.018c-25.731,2.377-52.76-7.71-52.76-7.71s-22.727-18.126-30.956-28.032
		C499.422,354.409,487.182,328.633,479.093,302.117z"/>
	<path style="fill:#C6402E;" d="M304.991,823.627c-2.676,6.415-3.452,13.623-7.058,19.565
		c-6.511,10.727-20.575,14.787-27.686,25.126c-7.907,11.496-4.712,27.907,3.852,38.923c8.564,11.015,92.722,57.032,185.711,69.179
		c99.145,12.952,205.747-5.608,305.489-12.605c135.971-9.539,152.788,40.527,171.993,27.263
		c-5.239-19.389-20.143-35.104-37.523-45.168c-17.381-10.064-37.176-15.109-56.869-19.052
		c-35.642-7.137-71.93-11.043-108.274-11.656c-59.322-1-121.247,6.322-175.865-16.851
		c-66.638-28.273-111.406-97.853-181.144-117.258c-9.921-2.761-20.597-4.394-30.435-1.352
		c-13.259,4.099-12.224,13.125-19.328,21.879C320.784,810.329,309.978,811.669,304.991,823.627z"/>
	<path style="fill:#A53428;" d="M765.298,942.792c-99.743,6.997-206.344,25.557-305.489,12.606
		c-92.989-12.147-177.147-58.164-185.711-69.179c-2.889-3.716-5.164-8.047-6.61-12.596c-4.098,10.858-0.706,24.206,6.61,33.618
		c8.564,11.015,92.722,57.032,185.711,69.179c99.145,12.952,205.747-5.609,305.489-12.605
		c135.971-9.539,152.788,40.527,171.993,27.263c-1.833-6.783-4.869-13.104-8.759-18.903
		C910.503,969.807,881.161,934.664,765.298,942.792z"/>
	<path style="opacity:0.38;fill:#FFFFFF;" d="M495.274,296.525c-0.694,8.216,2.573,16.312,7.029,23.25
		c4.456,6.937,10.105,13.021,14.947,19.695c9.322,12.847,15.631,27.84,26.174,39.707c2.378,2.676,6.265,5.337,9.206,3.298
		c2.798-1.94,1.954-6.237,0.669-9.39c-7.752-19.036-20.519-36.368-23.692-56.675c-1.147-7.337-1.237-15.476-6.139-21.053
		C517.02,288.02,496.477,282.292,495.274,296.525z"/>
	<path style="fill:#335614;" d="M480.816,261.137c-5.058-6.718-5.867-16.373-1.997-23.838c1.374,11.499,12.351,21.021,23.928,20.759
		c-4.167-7.978-2.897-18.464,3.054-25.218c1.745,9.776,6.746,18.943,14.023,25.701c5.396-7.101,7.007-16.918,4.162-25.372
		c10.007,1.964,18.036,11.383,18.392,21.575c7.821-5.135,10.986-16.293,7.026-24.77c5.569,4.732,9.203,11.679,9.913,18.953
		c3.939-2.836,4.918-8.15,6.171-12.84c1.253-4.69,3.901-9.922,8.708-10.596c-5.442,6.736,0.37,16.807-1.235,25.317
		c-1.541,8.165-9.592,13.354-17.333,16.376c-13.085,5.109-27.471,6.806-41.395,5.01
		C502.945,270.739,488.322,271.104,480.816,261.137z"/>
	<path style="fill:#335614;" d="M501.309,187.131c1.312-0.402,2.624-0.804,3.935-1.206c-1.431,12.377,4.079,24.384,9.45,35.627
		c2.566,5.37,5.178,10.813,9.078,15.309c3.15,3.633,7.142,6.656,9.304,10.951c2.241,4.451,0.893,14.971-5.107,10.947
		c-4.656-3.123-9.615-15.843-12.185-20.902C507.774,222.085,502.793,204.764,501.309,187.131z"/>
	<path style="fill:#335614;" d="M1049.054,275.224c3.152-4.333,7.98-7.113,12.825-9.403c-3.186,4.107-4.857,9.363-4.629,14.555
		c7.699,1.831,16.175,0.077,22.515-4.661c-2.061,3.748-4.12,7.497-6.181,11.245c9.501-1.943,19.672-0.42,28.188,4.22
		c-5.856,0.525-11.586,2.419-16.602,5.488c9.639,2.604,18.614,7.623,25.877,14.472c-4.762,0.989-9.525,1.978-14.288,2.966
		c12.441,7.035,19.545,22.421,16.831,36.453c1.525-4.678-4.243-8.757-9.161-8.622c-4.918,0.136-9.592,2.553-14.512,2.47
		c-8.378-0.142-14.805-7.244-19.74-14.016C1061.528,318.524,1037.799,290.693,1049.054,275.224z"/>
	<path style="fill:#C6402E;" d="M860.39,356.382c32.912-16.461,69.523-26.236,99.025-48.232
		c7.139-5.322,13.916-11.391,22.147-14.788c9.205-3.799,24.231-13.154,34.189-13.181c35.363-0.093,53.354,13.11,71.849,33.118
		c8.16,8.828,9.943,34.186,7.542,45.965c-0.98,4.81-3.498,9.193-6.552,13.036c-13.767,17.327-36.973,23.546-58.666,27.919
		c-65.165,13.139-131.57,18.82-197.382,28.197c-17.389,2.478-29.953,7.396-43.925,17.368
		C789.792,405.513,827.316,372.924,860.39,356.382z"/>
	<path style="opacity:0.38;fill:#FFFFFF;" d="M983.736,314.009c-10.111,10.292-24.949,13.934-38.736,18.184
		c-12.9,3.977-25.524,8.849-37.751,14.572c-2.718,1.272-5.845,3.267-5.674,6.264c0.191,3.36,4.334,4.866,7.698,4.978
		c10.908,0.36,21.062-5.006,30.898-9.735c16.676-8.016,34.051-14.578,51.863-19.587c9.432-2.652,19.285-5.012,27.053-10.983
		c9.948-7.647,15.919-26.854-1.101-29.644C1000.513,285.194,993.654,303.913,983.736,314.009z"/>
	<path style="opacity:0.38;fill:#FFFFFF;" d="M379.162,828.764c7.391,2.844,15.386,3.651,23.061,5.601
		c31.109,7.901,54.028,33.348,79.968,52.251c3.978,2.898,10.87,4.948,12.714,0.385c0.665-1.647,0.211-3.533-0.494-5.164
		c-3.526-8.154-12.301-12.402-19.926-16.962c-26.654-15.94-45.015-42.057-70.43-59.599c-8.958-6.183-24.507-17.667-35.113-9.493
		C354.658,806.794,366.331,823.826,379.162,828.764z"/>
	<path style="opacity:0.38;fill:#FFFFFF;" d="M512.527,901.552c-1.627,1.895-2.05,4.856-0.695,6.954
		c1.845,2.857,5.81,3.148,9.198,3.446c22.098,1.948,41.755,16.589,63.92,17.505c2.616,0.108,5.352-0.008,7.656-1.252
		c2.304-1.245,4.024-3.909,3.412-6.455c-0.919-3.82-5.788-4.807-9.698-5.194c-16.527-1.636-32.779-6.029-47.88-12.943
		C531.725,900.539,518.91,894.123,512.527,901.552z"/>
	<path style="fill:#335614;" d="M250.679,739.989c-0.746-2.011-1.503-4.122-1.223-6.249c0.28-2.126,1.968-4.233,4.113-4.199
		c4.033,9.169,8.065,18.338,12.098,27.507c5.303,12.057,11.023,24.654,21.544,32.58c4.764,3.589,21.904,12.399,16.669,21.017
		c-5.331,8.776-17.392-4.409-20.809-8.319C267.513,784.529,258.793,761.859,250.679,739.989z"/>
	<path style="fill:#C95145;" d="M677.095,406.575c8.68-4.375,17.551-12.108,16.589-21.781c-0.988-9.948-11.834-15.798-21.682-17.525
		c-4.869-0.854-10.493-1.532-13.226-5.651c8.553-4.533,18.986-2.346,28.304,0.278c8.221,2.315,16.623,5.025,23.09,10.603
		c6.467,5.578,10.563,14.747,7.818,22.835c-2.761,8.138-11.214,12.739-19.151,16.035c-23.671,9.828-49.258,15.017-74.888,15.185
		c-5.944,0.039-12.139-0.253-17.368-3.08c-2.272-1.228,12.695-3.611,12.744-3.615c6.719-0.575,13.439-1.264,20.109-2.265
		C652.41,415.648,665.322,412.509,677.095,406.575z"/>
	<path style="fill:#C95145;" d="M766.109,427.082c-4.832,4.421-8.665,11.827-5.044,17.284c1.57,2.366,4.216,3.766,6.813,4.916
		c17.27,7.647,37.513,8.316,55.25,1.827c7.313-2.675,14.37-6.662,19.217-12.756c3.617,0.261,5.34,5.137,3.83,8.434
		c-1.511,3.297-4.956,5.207-8.252,6.72c-24.728,11.352-53.07,12.826-80.008,8.996c-9.729-1.383-20.819-4.564-24.591-13.638
		c-3.965-9.54,2.605-20.356,10.701-26.774c9.878-7.832,22.466-12.174,35.072-12.099c2.622,0.016,5.849,0.67,6.585,3.185
		C786.931,417.435,769.227,424.229,766.109,427.082z"/>
	<path style="fill:#C95145;" d="M475.389,395.459c-1.355,6.581,2.351,13.416,7.686,17.502c5.335,4.085,12.037,5.907,18.624,7.233
		c14.941,3.009,30.3,3.938,45.495,2.752c1.197-0.093,2.468-0.228,3.413-0.969c0.945-0.741,1.334-2.312,0.464-3.139
		c-0.456-0.434-1.118-0.554-1.739-0.655c-8.673-1.414-17.345-2.827-26.018-4.24c-6.381-1.04-13.13-2.248-17.979-6.525
		c-4.849-4.277-6.583-12.743-1.784-17.079c3.151-2.845,8.444-4.911,4.699-9.623c-2.163-2.721-8.719-2.477-11.735-1.929
		C488.082,380.317,477.24,386.467,475.389,395.459z"/>
	<path style="opacity:0.14;fill:#FFFFFF;" d="M376.644,375.846c-3.102,2.636-6.223,5.669-7.15,9.632
		c-1.007,4.309,0.886,8.906,3.934,12.114c3.048,3.207,7.112,5.243,11.19,6.959c19.042,8.011,40.435,10.339,60.755,6.612
		c2.362-0.434,4.849-1.02,6.549-2.715c2.81-2.803,2.364-7.592,0.493-11.092c-1.871-3.5-4.863-6.272-6.977-9.631
		c-7.23-11.492-0.827-29.045,12.104-33.183c4.27-1.366,8.893-1.432,13.094-2.999c4.199-1.567,8.143-5.443,7.553-9.885
		C474.738,315.652,386.704,367.296,376.644,375.846z"/>
	<path style="opacity:0.14;fill:#FFFFFF;" d="M1080.288,409.148c10.162-5.194,20.085-11.969,25.577-21.974
		c3.254-5.93,5.063-13.085,10.485-17.128c3.72-2.774,8.592-3.571,13.227-3.346c9.683,0.468,19.083,5.21,25.214,12.72
		c3.658,4.48,6.217,10.566,4.313,16.028c-1.24,3.556-4.152,6.243-7.091,8.598c-24.25,19.438-56.029,26.078-86.513,32.132
		c-55.322,10.988-112.429,21.988-167.679,10.64c-3.073-0.631-6.648-1.787-7.542-4.795c-0.607-2.042,0.321-4.245,1.618-5.935
		c5.388-7.021,15.625-7.456,24.474-7.262C971.362,430.03,1029.509,434.538,1080.288,409.148z"/>
	<path style="fill:#629B4B;" d="M786.174,332.533c-1.853-6.085-1.841-12.584-1.285-18.92c0.531-6.053,1.577-12.166,4.274-17.611
		c2.698-5.445,7.237-10.195,13.022-12.054c4.201-10.721,15.726-18.096,27.221-17.418c1.457,0.086,3.027,0.264,4.283-0.481
		c1.11-0.658,1.718-1.89,2.329-3.026c6.115-11.379,18.604-19.046,31.517-19.35c1.749-0.041,3.612,0.013,5.096-0.913
		c1.373-0.857,2.146-2.388,3.207-3.611c2.938-3.393,7.801-4.198,12.25-4.79c7.83-1.04,15.66-2.081,23.491-3.122
		c1.901,7.234,1.355,15.089-1.528,21.991c-0.701,1.676-1.554,3.413-1.331,5.215c0.18,1.463,1.045,2.734,1.773,4.016
		c6.151,10.829,2.213,26.206-8.385,32.746c4.499,5.818,3.071,14.347-0.341,20.862c-5.841,11.153-16.986,19.376-29.367,21.666
		c2.28,5.981-2.885,12.676-9.004,14.554c-6.119,1.878-12.694,0.394-18.97-0.864c-11.964-2.399-24.1-3.939-36.284-4.61
		c-4.695-0.258-9.623,0.643-13.692-1.719C790.311,342.691,787.495,336.871,786.174,332.533z"/>
	<path style="fill:#629B4B;" d="M749.18,292.283c-12.938-13.616-30.699-22.554-49.344-24.831c-1.445-0.177-2.909-0.317-4.29-0.778
		c-1.745-0.582-3.28-1.645-4.832-2.632c-13.038-8.293-29.036-11.818-44.352-9.773c3.488,3.777,7.086,7.744,8.52,12.681
		c1.773,6.103-0.05,12.602-0.147,18.956c-0.155,10.052,4.31,20.083,11.881,26.696c1.142,0.997,2.382,1.96,3.076,3.307
		c0.544,1.055,0.704,2.258,0.915,3.425c2.584,14.264,14.783,26.266,29.088,28.617l68.595-7.766c1.057,0.881,2.114,1.763,3.171,2.644
		C770.138,324.093,762.118,305.899,749.18,292.283z"/>
	<path style="fill:#79BA5B;" d="M882.956,262.34c5.456-7.328,10.926-14.673,17.152-21.359c-3.015,4.357-5.596,9.014-7.692,13.879
		c-0.718,1.669-1.283,3.862,0.054,5.093c1.338,1.233,3.443,0.494,5.239,0.197c1.795-0.297,4.315,0.854,3.701,2.567
		c-8.646,3.977-17.771,8.365-22.835,16.423c5.643-0.417,11.243-1.407,16.686-2.951c-2.721,5.172-8.798,7.357-14.023,9.975
		c-7.58,3.797-14.273,9.35-19.404,16.098c-0.692,0.91-1.389,1.958-1.266,3.095c0.238,2.189,3.084,2.878,5.283,2.781
		c9-0.396,18.009-4.643,26.719-2.343c-0.009,3.262-3.098,5.597-6.003,7.08c-12.516,6.389-27.538,7.309-39.178,15.18
		c-1.026,0.694-2.144,1.782-1.775,2.965c4.699-0.977,9.607-0.931,14.287,0.136c-3.904,5.387-11.096,7.092-17.705,7.857
		c-3.768,0.436-10.527,2.956-14.019,2.404c-3.294-0.52-2.109-2.144-0.275-5.135c5.363-8.752,12.528-16.822,18.662-25.06
		C858.693,294.928,870.824,278.634,882.956,262.34z"/>
	<path style="fill:#79BA5B;" d="M732.935,340.85c8.576-0.924,17.127-2.081,25.641-3.468c0.835-0.136,1.725-0.301,2.332-0.891
		c1.259-1.224,0.409-3.554-1.148-4.366c-1.558-0.812-3.431-0.57-5.167-0.308c-3.992,0.602-7.984,1.204-11.977,1.806
		c-1.407,0.212-3.116,0.31-3.965-0.832c-0.543-0.729-0.519-1.735-0.328-2.624c1.562-7.264,11.788-10.424,12.619-17.807
		c0.204-1.807-0.688-4.08-2.504-4.153c-0.556-0.023-1.096,0.175-1.606,0.399c-3.324,1.457-5.985,4.075-8.448,6.74
		c-2.405,2.603-6.086,5.539-9.029,3.566c-2.846-1.907-1.645-6.495,0.725-8.968c2.37-2.474,5.666-4.297,6.873-7.504
		c0.537-1.426,0.408-3.362-0.942-4.068c-0.647-0.339-1.426-0.307-2.143-0.166c-3.17,0.625-5.605,3.098-7.793,5.475
		c-1.477,1.603-3.235,3.349-5.412,3.266c-2.368-0.09-4.132-2.465-4.387-4.821c-0.255-2.356,0.61-4.673,1.459-6.885
		c1.197-3.114,2.394-6.227,3.59-9.341c1.092-2.841,1.714-6.931-1.075-8.149c-2.362-1.031-4.799,1.175-6.44,3.164
		c-2.02,2.45-4.041,4.9-6.061,7.35c-1.069,1.295-2.941,2.686-4.2,1.574c-0.652-0.577-0.713-1.555-0.726-2.425
		c-0.04-2.589-0.08-5.179-0.12-7.769c-2.516-0.609-3.632,4.32-6.19,3.924c-1.141-0.177-1.807-1.402-2.021-2.536
		c-0.398-2.106,0.146-4.273,0.046-6.413c-0.1-2.141-1.207-4.555-3.315-4.936c-1.665-0.3-3.319,0.848-4.15,2.322
		c-0.83,1.474-1.017,3.211-1.187,4.895c-2.693-2.855-11.486-14.129-30.937-19.687c4.602,5.915,25.521,18.28,31.213,23.45
		c6.402,5.815,12.463,12.006,18.145,18.528c5.591,6.418,10.814,13.157,15.629,20.176C721.35,321.421,731.938,340.957,732.935,340.85
		z"/>
</g>
<g>
	<path style="fill:#E7F2F0;" d="M1446.521,972.999c9.017,9.667,25.057,9.849,37.979,7.056c-3.906,3.846-18.271,4.479-11.718,11.537
		c11.279,10.091,27.902,10.859,43.028,10.343c23.258-0.795,46.454-3.361,69.322-7.67c8.091-1.525,16.5-3.438,22.79-8.749
		c4.441-3.75,7.516-8.961,12.158-12.459c6.038-4.548,13.939-5.643,21.477-6.224c25.424-1.956,51.163,0.265,75.877,6.544
		c6.838,1.738,13.781,3.802,20.813,3.217c7.032-0.586,14.32-4.539,16.483-11.255c3.046-9.455-4.989-18.792-13.208-24.371
		c-16.492-11.196-36.068-16.74-55.266-22.112c-17.021-4.763-34.362-9.568-52.031-9.063c-13.655,0.391-26.998,3.946-40.195,7.479
		c-28.249,7.563-58.166,13.148-85.363,23.977C1501.526,944.092,1433.485,959.024,1446.521,972.999z"/>
	<ellipse style="fill:#E7F2F0;" cx="2059.037" cy="815.652" rx="289.407" ry="54.469"/>
	<path style="fill:#71AD55;" d="M1519.191,790.468c-3.323-13.86-1.122-29.437,7.818-40.538
		c8.939-11.101,25.088-16.575,38.294-11.215c2.167-12.793,13.511-22.093,25.281-27.553c6.68-3.099,13.877-5.389,21.24-5.398
		s14.932,2.473,20.039,7.777c1.082,1.124,2.272,2.467,3.833,2.42c0.959-0.029,1.804-0.596,2.629-1.084
		c7.932-4.696,19.132-2.805,25.081,4.235c5.531,6.546,6.211,16.053,4.347,24.417c-3.029,13.593-11.939,25.343-22.806,34.054
		c-10.866,8.711-23.646,14.683-36.515,20.005c-11.929,4.933-24.058,9.382-36.347,13.332c-6.271,2.016-12.642,3.913-19.206,4.463
		C1534.833,816.897,1523.455,808.254,1519.191,790.468z"/>
	<path style="fill:#71AD55;" d="M1460.104,906.634c-7.664-13.869-1.718-33.721,12.595-40.521
		c-5.732-5.672-7.961-14.356-6.661-22.315c1.299-7.959,5.832-15.167,11.762-20.633c6.486-5.979,15.032-10.124,23.85-9.849
		c4.825-8.528,16.178-11.934,25.644-9.399c9.466,2.535,17.023,9.944,21.934,18.424c7.882,13.612,9.659,31.023,3.06,45.301
		c-4.358,9.429-11.997,17.039-20.566,22.911c-7.2,4.934-14.649,9.006-20.6,15.528c-4.187,4.589-7.519,11.2-13.151,14.219
		C1485.294,927.096,1466.557,918.313,1460.104,906.634z"/>
	<g>
		<path style="fill:#D3B594;" d="M2290.484,796.008v-40.454l-231.283-29.091l-231.282,31.55v37.995c0,0-1.951,18.3,68.198,42.479
			c95.925,33.061,251.801,22.18,326.168,0C2293.391,817.279,2290.484,796.008,2290.484,796.008z"/>
		<path style="fill:#BFA388;" d="M2222.115,838.486c71.105-21.208,68.199-42.479,68.199-42.479v-40.454l-106.038-13.338
			c-0.168,0.101-0.338,0.198-0.505,0.298c-12.159,7.342-23.845,13.948-24.761,29.075c-0.962,15.886,7.699,35.172,0.802,50.363
			c-4.246,9.351-15.406,13.044-25.431,15.277c-76.574,17.052-156.718,6.572-232.972-11.857
			c-23.813-5.755-47.982-12.524-68.025-26.612c-1.648-1.158-3.635-2.322-5.636-3.091v0.339c0,0-1.951,18.3,68.198,42.479
			C1991.872,871.548,2147.748,860.667,2222.115,838.486z"/>
		<path style="fill:#D3B594;" d="M2530.416,337.97h-473.527h-468.927c0,0-7.248,96.707,46.812,213.431
			c81.076,175.062,193.146,206.612,193.146,206.612l228.97,4.421l228.97-4.421c0,0,112.069-31.55,193.146-206.612
			C2533.063,434.677,2530.416,337.97,2530.416,337.97z"/>
		<path style="fill:#BFA388;" d="M2530.253,337.97h-168.175c0,0,21.85,98.247-37.769,212.232
			c-65.978,126.144-128.496,161.241-204.963,187.255c-94.879,32.278-205.968,24.174-205.968,24.174s111.393,25.449,200.706,25.449
			c88.823,0,171.611-29.068,171.611-29.068s112.068-31.55,193.146-206.612C2532.901,434.677,2530.253,337.97,2530.253,337.97z"/>
		<path style="fill:#F7D3B0;" d="M1587.962,337.97c4.136,70.334,177.459,131.896,471.239,131.896
			c303.348,0,468.816-46.763,471.215-131.896c2.397-85.132-161.872-147.578-464.033-146.284
			C1811.904,192.775,1598.753,210.871,1587.962,337.97L1587.962,337.97z"/>
		<path style="fill:#E2BFA3;" d="M1608.364,337.194c3.956,62.751,169.778,117.674,450.843,117.674
			c290.217,0,448.524-41.721,450.818-117.674c2.295-75.954-154.865-131.665-443.947-130.512
			C1822.613,207.654,1618.688,223.798,1608.364,337.194L1608.364,337.194z"/>
		<path style="opacity:0.38;fill:#FFFFFF;" d="M1701.188,486.29c-4.874,12.97-0.737,27.455,4.127,40.43
			c13.329,35.556,31.998,68.929,53.116,100.488c15.188,22.696,34.194,46.175,61.029,51.241c9.42,1.778,19.561,0.984,27.947-3.659
			c8.387-4.643,14.693-13.485,14.924-23.068c0.234-9.755-5.442-18.526-10.573-26.827c-12.544-20.295-23.117-42.079-28.395-65.347
			c-3.507-15.459-4.798-31.86-12.731-45.585C1797.024,490.425,1716.475,445.613,1701.188,486.29z"/>
		<path style="opacity:0.38;fill:#FFFFFF;" d="M1863.502,773.411c-2.216,0.069-4.527,0.284-6.406,1.459
			c-3.921,2.451-4.394,8.339-2.153,12.382c2.241,4.044,6.403,6.606,10.505,8.739c17.014,8.847,35.925,13.367,54.793,16.79
			c7.24,1.314,14.966,2.431,21.748-0.424c6.782-2.855,11.763-11.234,8.369-17.763c-3.224-6.202-11.433-7.324-18.393-7.967
			C1909.261,784.531,1885.724,772.724,1863.502,773.411z"/>
		<path style="fill:#CEAD97;" d="M1608.364,337.413c3.171,50.303,110.367,95.575,297.559,111.557
			c-10.05-6.818-19.827-14.038-29.286-21.651c-57.92-46.62-104.383-107.535-133.632-175.918c-2.46-5.753-5.145-11.788-7.698-17.966
			C1660.872,252.284,1613.218,284.099,1608.364,337.413z"/>
	</g>
	<path style="fill:#629B4B;" d="M2494.347,373.204c-45.313-54.851-193.333-91.746-429.13-90.804
		c-207.745,0.829-386.697,12.708-441.149,86.626c48.671,48.387,202.179,85.842,434.28,85.842
		C2298.805,454.868,2448.707,426.227,2494.347,373.204z"/>
	<path style="fill:#537F3E;" d="M1784.484,408.574c-5.979-2.214-10.659-8.065-10.73-14.441c-0.072-6.376,5.021-12.625,11.378-13.142
		c-3.112-6.866-0.599-15.285,4.413-20.917c5.011-5.631,12.078-8.968,19.13-11.63c9.669-3.65,21.045-6.169,29.921-0.874
		c11.585-11.165,29.154-13.563,45.182-12.147c3.61,0.319,7.491,0.935,10.051,3.501c2.561,2.565,2.678,7.713-0.6,9.259
		c9.898-4.665,22.306-3.476,31.139,2.984c3.201,2.341,6.074,5.587,6.557,9.522c0.657,5.365-3.455,10.395-8.394,12.591
		c-4.938,2.196-10.533,2.201-15.938,2.167c-6.352,10.193-23.291,11.112-30.708,1.665c-2.712,4.045-7.977,5.757-12.839,5.489
		c-4.863-0.267-9.462-2.191-13.948-4.088c-5.423-2.294-10.847-4.587-16.27-6.88c2.141,4.647,0.976,10.605-2.759,14.103
		c-3.734,3.498-9.755,4.272-14.253,1.833c3.521,4.068,3.688,10.652,0.376,14.892c-3.984,5.101-8.32,3.254-13.582,4.31
		C1796.133,408.073,1791.412,411.138,1784.484,408.574z"/>
	<path style="fill:#537F3E;" d="M1895.435,423.154c1.298,0.877,2.646,1.794,4.197,2.018c1.159,0.167,2.333-0.072,3.479-0.309
		c5.25-1.085,10.5-2.17,15.75-3.256c-19.422-6.839-31.327-30.104-25.514-49.857c-4.75,0.35-9.5,0.699-14.25,1.048
		c0.528,9.187,1.743,18.333,3.632,27.339c-6.938-9.472-13.875-18.944-20.812-28.416c-1.265-1.726-2.561-3.484-4.306-4.723
		c-5.321-3.778-12.64-1.589-18.741,0.726c5.819,9.057,12.179,17.766,19.034,26.066c-16.143-5.169-32.985-8.146-49.922-8.824
		c-1.55-0.062,2.06,6.202,2.992,6.835c2.417,1.642,8.596,1.267,11.517,1.789c8.745,1.564,17.38,3.747,25.821,6.516
		C1864.979,405.575,1880.897,413.334,1895.435,423.154z"/>
	<path style="fill:#537F3E;" d="M2200.435,393.474c-6.655-2.617-12.029-9.918-9.991-16.772c2.469-8.299,13.022-10.537,21.674-10.89
		c2.05-8.554,11.272-13.225,19.809-15.345c10.488-2.604,21.498-3.083,32.172-1.4c3.456,0.545,6.995,1.366,9.797,3.463
		c2.801,2.097,4.687,5.765,3.75,9.136c15.369-3.689,32.066-1.526,45.988,5.957c7.241,3.893,14.386,10.539,13.857,18.743
		c-0.492,7.637-7.315,13.102-13.543,17.548c6.001,0.968,7.951,9.672,4.361,14.579c-3.589,4.906-10.256,6.449-16.334,6.435
		c-12.083-0.028-24.721-5.552-30.554-16.133c-4.056,5.377-12.833,5.576-18.038,1.301c-5.204-4.275-6.963-11.781-5.649-18.387
		c-3.896,6.16-10.82,10.299-18.091,10.814c-8.137,0.575-11.547-4.119-18.199-6.742
		C2215.006,393.242,2207.394,396.211,2200.435,393.474z"/>
	<path style="fill:#537F3E;" d="M2195.036,409.052c-10.413,6.022-22.616,8.419-34.644,8.598c3.139,5.085,6.277,10.17,9.416,15.255
		c43.899-9.506,90.154-4.772,133.574-16.272c0.172-2.565-0.967-5.183-2.959-6.808c-22.15,6.81-45.696,9.041-68.73,6.514
		c11.111-2.898,21.934-6.91,32.25-11.956c1.138-0.557,2.386-1.264,2.704-2.49c0.337-1.299-0.536-2.602-1.518-3.519
		c-5.142-4.806-13.515-4.056-19.79-0.87c-6.275,3.186-11.336,8.324-17.311,12.044c-5.975,3.719-13.768,5.917-19.977,2.602
		c4.141-5.588,8.438-11.654,11.383-17.981c1.907-4.099,4.336-7.595-1.245-6.575c-4.337,0.793-7.22,7.029-9.688,10.02
		C2204.717,402.197,2200.187,406.073,2195.036,409.052z"/>
	<path style="fill:#537F3E;" d="M2114.195,293.535c-4.49,1.69-9.399,5.813-7.79,10.333c-8.476,0.055-16.942,1.307-25.07,3.707
		c-5.741,1.696-12.204,5.072-12.772,11.032c-0.426,4.455,2.97,8.616,7.11,10.311c4.142,1.694,8.827,1.385,13.224,0.552
		c7.011-1.33,13.779-3.93,19.878-7.637c2.188,5.079,8.174,7.412,13.688,7.825c11.801,0.884,23.871-5.111,30.297-15.049
		c11.487,13.264,34.081,14.763,47.22,3.131c6.157,6.075,15.552,8.655,23.948,6.578c4.608-1.141,9.38-4.346,9.734-9.081
		c0.396-5.277-4.749-9.226-9.615-11.306c-8.819-3.771-18.725-4.962-28.188-3.389c-1.473,0.245-2.991,0.554-4.441,0.2
		c-1.957-0.479-3.41-2.056-4.945-3.36c-8.014-6.807-19.03-5.84-27.406-0.517C2149.873,287.635,2125.211,289.39,2114.195,293.535z"/>
	<path style="fill:#537F3E;" d="M2155.157,358.34c3.888-0.022,7.776-0.043,11.664-0.065c0.97-0.005,1.966-0.016,2.867-0.373
		c1.229-0.486,2.122-1.546,2.961-2.566c4.267-5.186,8.565-10.418,11.682-16.367c3.116-5.948,5.005-12.741,4.103-19.396
		c-2.848-0.24-5.696-0.479-8.544-0.719c0.011,4.152-0.67,8.305-2.006,12.235c-0.959,2.821-2.335,5.632-4.692,7.455
		c-2.356,1.823-5.891,2.383-8.313,0.647c1.652-7.604,2.191-15.449,1.595-23.208c-3.084-0.235-6.167-0.47-9.251-0.706
		c0.125,5.563,0.25,11.125,0.375,16.688c-4.472-2.206-11.504-8.868-16.445-11.684c-1.521-0.867-3.265,4.324-4.932,4.047
		c8.347,1.644,14.319,6.935,17.959,11.382C2155.599,337.446,2161.425,358.305,2155.157,358.34z"/>
	<polygon style="fill:#EFDA81;" points="1913.379,321.075 1885.354,261.881 1926.018,230.997 1961.534,238.203 1994.477,330.144 
		1956.387,339.09 	"/>
	<path style="fill:#EFDA81;" d="M2287.874,330.144c0.515-1.863,49.644-54.366,49.644-54.366l58.965,14.389l6.177,51.035
		l-33.458,27.423c0,0-26.307-7.915-31.684-6.886C2332.141,362.768,2287.874,330.144,2287.874,330.144z"/>
	<path style="fill:#EFDA81;" d="M1661.445,358.34c0.515-3.807,32.428-59.913,32.428-59.913l73.092,21.104l-4.117,52.78
		l-51.988,15.105L1661.445,358.34z"/>
	<polygon style="fill:#EFDA81;" points="2006.83,397.77 2053.671,348.082 2126.763,372.31 2121.101,409.566 2079.407,432.905 	"/>
	<polygon style="fill:#E2C57D;" points="1766.965,319.531 1762.848,372.31 1710.859,387.415 	"/>
	<path style="fill:#E2C57D;" d="M1961.534,238.203c0,0-29.093,21.007-28.83,21.795c0.263,0.789,22.861,81.204,22.861,81.204
		l38.911-11.058L1961.534,238.203z"/>
	<polygon style="fill:#E2C57D;" points="2126.763,372.31 2079.407,432.905 2121.101,409.566 	"/>
	<polygon style="fill:#E2C57D;" points="2396.482,290.167 2333.811,360.663 2369.201,368.625 2402.659,341.202 	"/>
	<g>
		<path style="fill:#E2C57D;" d="M1696.184,326.839c1.83-1.24,3.66-2.479,5.49-3.719c0.543-0.368,0.971-0.847,1.149-1.494
			c0.165-0.599,0.09-1.396-0.252-1.926c-0.345-0.534-0.856-1.004-1.494-1.149c-0.632-0.144-1.372-0.124-1.927,0.252
			c-1.83,1.24-3.66,2.479-5.491,3.719c-0.543,0.368-0.971,0.847-1.148,1.494c-0.165,0.599-0.091,1.396,0.252,1.926
			c0.344,0.534,0.856,1.004,1.494,1.149C1694.888,327.235,1695.628,327.215,1696.184,326.839L1696.184,326.839z"/>
	</g>
	<g>
		<path style="fill:#E2C57D;" d="M1682.684,349.651c2.455-0.6,4.911-1.199,7.367-1.799c1.271-0.31,2.153-1.816,1.746-3.075
			c-0.427-1.32-1.713-2.079-3.075-1.746c-2.456,0.6-4.912,1.199-7.367,1.799c-1.271,0.31-2.154,1.816-1.747,3.075
			C1680.035,349.225,1681.321,349.983,1682.684,349.651L1682.684,349.651z"/>
	</g>
	<g>
		<path style="fill:#E2C57D;" d="M1700.151,361.278c4.715,0.25,9.445-0.144,14.069-1.094c1.283-0.263,2.143-1.849,1.746-3.075
			c-0.439-1.359-1.701-2.028-3.075-1.746c-2.34,0.481-3.782,0.689-6.135,0.859c-2.198,0.16-4.404,0.173-6.605,0.056
			c-1.309-0.069-2.559,1.2-2.5,2.5C1697.715,360.192,1698.75,361.204,1700.151,361.278L1700.151,361.278z"/>
	</g>
	<g>
		<path style="fill:#E2C57D;" d="M1706.585,341.993c4.354-1.261,8.554-3.122,12.397-5.526c1.108-0.693,1.644-2.262,0.897-3.42
			c-0.716-1.11-2.234-1.639-3.421-0.897c-1.803,1.127-3.678,2.137-5.617,3.009c-0.259,0.116-0.52,0.228-0.779,0.342
			c0.525-0.228-0.128,0.051-0.188,0.075c-0.525,0.213-1.055,0.417-1.587,0.611c-0.999,0.363-2.012,0.689-3.032,0.985
			c-1.256,0.363-2.166,1.779-1.746,3.075C1703.922,341.522,1705.239,342.382,1706.585,341.993L1706.585,341.993z"/>
	</g>
	<g>
		<path style="fill:#E2C57D;" d="M1742.45,338.159c1.227-2.912,2.313-5.88,3.257-8.896c0.392-1.248-0.461-2.782-1.745-3.075
			c-1.36-0.31-2.657,0.41-3.076,1.746c-0.944,3.016-2.031,5.984-3.258,8.896c-0.232,0.554-0.035,1.436,0.253,1.927
			c0.303,0.519,0.897,1.013,1.494,1.148c0.64,0.146,1.358,0.114,1.926-0.252C1741.887,339.275,1742.182,338.795,1742.45,338.159
			L1742.45,338.159z"/>
	</g>
	<g>
		<path style="fill:#E2C57D;" d="M1723.803,321.939c2.803-0.172,5.605-0.344,8.409-0.516c1.303-0.08,2.563-1.093,2.5-2.5
			c-0.058-1.286-1.102-2.586-2.5-2.5c-2.804,0.172-5.606,0.344-8.409,0.516c-1.303,0.08-2.563,1.093-2.5,2.5
			C1721.36,320.725,1722.404,322.025,1723.803,321.939L1723.803,321.939z"/>
	</g>
	<g>
		<path style="fill:#E2C57D;" d="M1899.886,266.985c0.925,1.417,1.722,2.91,2.384,4.468c-0.084-0.199-0.168-0.398-0.252-0.598
			c0.335,0.799,0.634,1.611,0.897,2.437c0.195,0.615,0.584,1.164,1.148,1.494c0.536,0.314,1.325,0.446,1.927,0.252
			c1.247-0.404,2.171-1.741,1.746-3.076c-0.84-2.636-2.02-5.183-3.533-7.5c-0.355-0.544-0.857-0.974-1.494-1.149
			c-0.599-0.165-1.396-0.09-1.927,0.252C1899.69,264.269,1899.121,265.814,1899.886,266.985L1899.886,266.985z"/>
	</g>
	<g>
		<path style="fill:#E2C57D;" d="M1923.561,271.141c1.184,3.604,2.038,7.307,2.554,11.066c0.078,0.573,0.675,1.217,1.148,1.494
			c0.536,0.314,1.325,0.447,1.927,0.252c0.604-0.196,1.188-0.571,1.494-1.149c0.336-0.637,0.349-1.22,0.252-1.927
			c-0.516-3.759-1.369-7.461-2.555-11.065c-0.407-1.24-1.746-2.176-3.074-1.746C1924.068,268.466,1923.123,269.811,1923.561,271.141
			L1923.561,271.141z"/>
	</g>
	<g>
		<path style="fill:#E2C57D;" d="M1914.305,295.229c2.598,2.21,5.195,4.419,7.793,6.629c0.514,0.437,1.073,0.732,1.768,0.732
			c0.613,0,1.346-0.272,1.768-0.732c0.855-0.932,1.064-2.63,0-3.536c-2.598-2.209-5.195-4.419-7.793-6.628
			c-0.514-0.437-1.072-0.732-1.768-0.732c-0.613,0-1.346,0.272-1.768,0.732C1913.449,292.625,1913.24,294.324,1914.305,295.229
			L1914.305,295.229z"/>
	</g>
	<g>
		<path style="fill:#E2C57D;" d="M1934.146,316.629c1.8,1.768,3.813,3.343,5.955,4.674c0.542,0.337,1.317,0.42,1.927,0.253
			c0.579-0.16,1.208-0.608,1.494-1.149c0.646-1.226,0.29-2.683-0.897-3.42c-0.914-0.568-1.799-1.182-2.651-1.839
			c0.169,0.13,0.338,0.261,0.506,0.391c-0.979-0.76-1.913-1.575-2.797-2.444c-0.461-0.452-1.121-0.732-1.769-0.732
			c-0.613,0-1.346,0.272-1.768,0.732c-0.438,0.476-0.762,1.102-0.732,1.768C1933.442,315.521,1933.664,316.157,1934.146,316.629
			L1934.146,316.629z"/>
	</g>
	<g>
		<path style="fill:#E2C57D;" d="M1922.596,251.637c2.891-0.615,5.78-1.23,8.67-1.845c1.281-0.273,2.146-1.843,1.746-3.075
			c-0.438-1.352-1.702-2.038-3.075-1.746c-2.89,0.615-5.78,1.23-8.67,1.845c-1.281,0.273-2.146,1.843-1.746,3.076
			C1919.958,251.242,1921.223,251.929,1922.596,251.637L1922.596,251.637z"/>
	</g>
	<g>
		<path style="fill:#E2C57D;" d="M2042.396,385.454c-0.128-1.805-1.628-3.108-3.458-2.63c-1.277,0.333-2.285,1.564-2.268,2.896
			c0.023,1.785,1.684,2.944,3.348,2.934c1.219-0.008,2.462-0.622,3.594-1.012c4.842-1.666,9.685-3.332,14.525-4.998
			c1.277-0.439,2.12-1.715,1.746-3.075c-0.341-1.242-1.792-2.188-3.075-1.746c-2.962,1.019-5.924,2.038-8.886,3.058
			c-1.481,0.51-2.962,1.019-4.443,1.529c-0.684,0.235-1.367,0.47-2.051,0.706c-0.342,0.118-0.683,0.237-1.025,0.352
			c-0.188,0.069-0.378,0.132-0.569,0.189c0.422-0.03,0.809,0.114,1.159,0.43c0.214,0.368,0.429,0.736,0.643,1.104
			c0.016,0.133,0.031,0.267,0.048,0.4c-0.114,0.421-0.228,0.841-0.342,1.262c-0.727,0.269-1.454,0.538-2.182,0.806
			c-0.368-0.214-0.735-0.429-1.103-0.643c0.021,0.025,0.041,0.051,0.062,0.076c-0.244-0.589-0.488-1.179-0.732-1.768
			c0.003,0.043,0.007,0.087,0.01,0.131c0.096,1.347,1.08,2.5,2.5,2.5C2041.174,387.954,2042.491,386.808,2042.396,385.454
			L2042.396,385.454z"/>
	</g>
	<g>
		<path style="fill:#E2C57D;" d="M2068.356,409.471c3.843-2.716,7.42-5.792,10.626-9.238c0.891-0.958,1.02-2.6,0-3.535
			c-0.969-0.889-2.584-1.023-3.536,0c-1.508,1.621-3.095,3.168-4.76,4.628c-0.821,0.72-1.661,1.418-2.517,2.096
			c-0.096,0.075-0.191,0.149-0.286,0.225c-0.241,0.192,0.376-0.286,0.002-0.001c-0.217,0.165-0.435,0.331-0.653,0.494
			c-0.462,0.344-0.929,0.682-1.399,1.015c-1.065,0.753-1.672,2.218-0.896,3.42C2065.618,409.631,2067.215,410.278,2068.356,409.471
			L2068.356,409.471z"/>
	</g>
	<g>
		<path style="fill:#E2C57D;" d="M2073.564,372.334c5.525,2.875,11.053,5.75,16.578,8.625c1.197,0.623,2.716,0.309,3.421-0.897
			c0.657-1.123,0.306-2.795-0.896-3.42c-5.526-2.875-11.053-5.75-16.579-8.625c-1.197-0.623-2.716-0.308-3.421,0.897
			C2072.01,370.037,2072.362,371.709,2073.564,372.334L2073.564,372.334z"/>
	</g>
	<g>
		<path style="fill:#E2C57D;" d="M2311.103,328.242c4.743-2.072,9.486-4.144,14.229-6.216c1.203-0.525,1.569-2.378,0.897-3.421
			c-0.805-1.247-2.134-1.459-3.421-0.897c-4.743,2.072-9.486,4.144-14.229,6.216c-1.203,0.525-1.569,2.377-0.896,3.42
			C2308.486,328.592,2309.816,328.804,2311.103,328.242L2311.103,328.242z"/>
	</g>
	<g>
		<path style="fill:#E2C57D;" d="M2335.246,346.692c4.156-3.616,7.579-8.129,9.929-13.113c0.557-1.18,0.368-2.752-0.897-3.42
			c-1.109-0.587-2.824-0.366-3.42,0.897c-1.12,2.375-2.479,4.612-4.043,6.719c-0.142,0.189-0.14,0.184,0.004,0
			c-0.109,0.14-0.219,0.278-0.33,0.416c-0.199,0.249-0.4,0.495-0.606,0.738c-0.41,0.487-0.833,0.964-1.268,1.43
			c-0.918,0.983-1.89,1.914-2.903,2.797c-0.99,0.861-0.948,2.665,0,3.536C2332.766,347.661,2334.189,347.611,2335.246,346.692
			L2335.246,346.692z"/>
	</g>
	<g>
		<path style="fill:#E2C57D;" d="M2325.715,309.199c4.989,0.811,9.978,1.622,14.967,2.433c1.286,0.209,2.754-0.332,3.075-1.746
			c0.274-1.203-0.365-2.851-1.745-3.075c-4.99-0.811-9.979-1.622-14.968-2.433c-1.286-0.209-2.753,0.333-3.075,1.746
			C2323.695,307.327,2324.334,308.975,2325.715,309.199L2325.715,309.199z"/>
	</g>
	<g>
		<path style="fill:#E2C57D;" d="M2348.675,322.263c3.317-2.106,6.636-4.212,9.953-6.318c1.104-0.7,1.647-2.257,0.896-3.42
			c-0.711-1.104-2.239-1.647-3.42-0.897c-3.317,2.106-6.636,4.212-9.953,6.319c-1.103,0.7-1.646,2.257-0.896,3.42
			C2345.967,322.47,2347.494,323.013,2348.675,322.263L2348.675,322.263z"/>
	</g>
	<g>
		<path style="fill:#E2C57D;" d="M2368.052,306.5c2.095-0.555,4.188-1.109,6.284-1.664c1.264-0.335,2.158-1.799,1.746-3.075
			c-0.422-1.299-1.721-2.105-3.076-1.746c-2.094,0.555-4.188,1.109-6.283,1.664c-1.265,0.335-2.159,1.799-1.746,3.076
			C2365.397,306.053,2366.697,306.858,2368.052,306.5L2368.052,306.5z"/>
	</g>
	<g>
		<path style="fill:#E2C57D;" d="M2345.282,290.414c0.127,0.014,0.254,0.03,0.382,0.046c-0.348-0.047-0.379-0.051-0.094-0.01
			c0.221,0.036,0.442,0.069,0.663,0.107c0.474,0.083,0.944,0.177,1.413,0.285c0.873,0.2,1.738,0.443,2.588,0.727
			c0.426,0.142,0.848,0.294,1.266,0.457c0.114,0.044,0.916,0.344,0.292,0.111c0.179,0.067,0.353,0.154,0.527,0.232
			c0.875,0.398,1.727,0.842,2.557,1.327c1.131,0.659,2.79,0.297,3.421-0.897c0.633-1.197,0.311-2.717-0.896-3.42
			c-3.738-2.178-7.834-3.462-12.118-3.964c-1.304-0.153-2.556,1.259-2.5,2.5C2342.849,289.399,2343.885,290.25,2345.282,290.414
			L2345.282,290.414z"/>
	</g>
	<path style="fill:#5C8E46;" d="M1954.903,403.295c3.478,2.26,6.778,4.955,8.983,8.468c2.205,3.513,3.197,7.959,1.888,11.895
		c-2.321,6.971-10.42,9.855-17.5,11.817c9.515,2.318,20.035,0.079,27.781-5.913c2.301-1.78,4.393-3.908,5.729-6.492
		c3.469-6.709,1.042-15.32-4.078-20.872c-5.12-5.552-12.393-8.584-19.62-10.774c-10.418-3.158-21.537-4.906-32.206-2.739
		c-3.764,0.765-4.34,3.093-1.535,5.23c2.496,1.902,5.846,0.554,8.614,0.754C1940.49,395.215,1948.682,399.252,1954.903,403.295z"/>
	<path style="fill:#5C8E46;" d="M1948.906,344.51c16.422,3.182,33.594,2.417,49.666-2.214c3.312-0.955,6.72-2.159,9.08-4.669
		c2.361-2.511,3.281-6.697,1.174-9.423c-1.725-2.231-5.196-3.352-5.503-6.154c5.211-1.965,11.603-0.773,15.407,3.294
		c3.804,4.068,4.459,10.889,1.116,15.342c-2.092,2.786-5.349,4.424-8.566,5.76c-21.202,8.805-45.285,8.453-67.714,3.548
		c-4.814-1.053-9.717-2.368-13.688-5.288c-1.219-0.897-2.41-2.079-2.559-3.585c-0.217-2.182,1.995-4.012,4.185-4.138
		C1937.324,336.649,1942.911,343.348,1948.906,344.51z"/>
	<path style="fill:#5C8E46;" d="M2271.804,320.408c-3.153,4.653-3.503,11.559,0.455,15.55c2.01,2.025,4.782,3.05,7.362,4.268
		c0.782,0.37,1.671,0.944,1.646,1.809c-0.025,0.881-0.981,1.403-1.819,1.677c-8.03,2.619-16.651-0.798-24.4-4.159
		c-3.811-1.653-7.701-3.357-10.747-6.182c-3.045-2.825-5.137-7.034-4.341-11.111c0.701-3.59,3.463-6.432,6.452-8.54
		c10.527-7.421,24.257-8.003,37.136-8.216c5.895-0.097,9.785,3.802,2.978,6.29C2280.709,313.918,2275.704,314.652,2271.804,320.408z
		"/>
	<path style="fill:#629B4B;" d="M1493.473,846.01c-5.853,13.604-1.354,31.789,11.779,38.636
		c-12.065,3.02-21.526,13.598-24.589,25.652c-3.063,12.055-0.181,25.186,6.403,35.738c13.164,21.096,41.604,31.204,65.129,23.147
		c23.525-8.057,39.798-33.478,37.265-58.215c11.99,5.879,27.66-1.778,32.961-14.036c5.3-12.258,1.688-27.033-6.356-37.693
		c19.013,6.311,40.992,2.842,57.139-9.017c9.438-6.932,17.162-17.31,17.654-29.011c0.491-11.7-8.297-24.002-19.997-24.495
		c7.787,5.481,19.12,3.464,26.434-2.634c7.313-6.098,11.251-15.354,13.597-24.583c1.368-5.382,2.279-11.092,0.82-16.45
		c-2.312-8.493-10.058-14.363-17.95-18.258c-13.2-6.513-28.486-9.325-42.887-6.274c-14.399,3.05-27.696,12.344-34.114,25.591
		c-17.69-11.974-41.997-5.161-60.362,5.749c-10.532,6.256-20.65,14.083-26.374,24.913c-6.14,11.618,1.19,26.404-6.895,35.649
		C1513.94,830.926,1499.93,831.006,1493.473,846.01z"/>
	<path style="fill:#588742;" d="M1693.75,734.757c-2.677-1.321-5.442-2.48-8.266-3.478c1.646,2.178,2.918,4.595,3.647,7.275
		c1.458,5.358,0.548,11.068-0.82,16.45c-2.347,9.229-6.283,18.485-13.597,24.583c-4.709,3.925-11.08,6.144-17.102,5.776
		c6.701,4.48,11.013,13.065,10.664,21.353c-0.491,11.701-8.216,22.079-17.654,29.011c-16.146,11.859-38.125,15.328-57.139,9.017
		c8.045,10.66,11.657,25.435,6.356,37.693c-5.3,12.258-20.97,19.916-32.96,14.036c2.532,24.737-13.739,50.158-37.265,58.215
		c-11.696,4.006-24.606,3.518-36.251-0.574c14.653,15.43,38.556,21.976,58.82,15.035c23.525-8.057,39.797-33.477,37.264-58.215
		c11.991,5.88,27.66-1.777,32.961-14.036c5.3-12.258,1.688-27.033-6.356-37.693c19.013,6.31,40.993,2.842,57.139-9.017
		c9.438-6.932,17.163-17.31,17.654-29.01c0.348-8.288-3.963-16.872-10.664-21.354c6.021,0.368,12.393-1.85,17.101-5.776
		c7.314-6.098,11.251-15.354,13.598-24.583c1.367-5.381,2.278-11.091,0.82-16.45C1709.389,744.521,1701.643,738.651,1693.75,734.757
		z"/>
	<g>
		<path style="fill:#7FBC5E;" d="M1502.323,931.961c-0.312-4.728,0.086-8.728,1.277-13.157c0.339-1.261-0.425-2.774-1.746-3.075
			c-1.315-0.299-2.712,0.394-3.075,1.746c-1.266,4.703-1.776,9.625-1.456,14.486c0.086,1.303,1.088,2.564,2.5,2.5
			C1501.104,934.404,1502.415,933.359,1502.323,931.961L1502.323,931.961z"/>
	</g>
	<g>
		<path style="fill:#7FBC5E;" d="M1500.511,908.219c0.237-0.193,0.478-0.384,0.717-0.575c0.144-0.114,0.241-0.19,0.038-0.033
			c0.121-0.094,0.243-0.187,0.365-0.279c0.489-0.37,0.984-0.732,1.484-1.085c1.033-0.729,2.09-1.425,3.168-2.084
			c2.125-1.299,4.334-2.454,6.609-3.468c1.198-0.535,1.573-2.371,0.896-3.42c-0.799-1.24-2.139-1.469-3.42-0.897
			c-4.831,2.155-9.29,4.974-13.395,8.306c-1.02,0.828-0.924,2.687,0,3.535C1498.058,909.214,1499.423,909.102,1500.511,908.219
			L1500.511,908.219z"/>
	</g>
	<g>
		<path style="fill:#7FBC5E;" d="M1519.438,920.375c0.1-0.136,0.2-0.271,0.303-0.404c-0.13,0.168-0.261,0.337-0.391,0.506
			c0.908-1.171,1.96-2.221,3.131-3.13c-0.169,0.13-0.338,0.26-0.507,0.391c0.828-0.636,1.708-1.197,2.634-1.679
			c1.163-0.604,1.604-2.324,0.897-3.42c-0.764-1.185-2.178-1.543-3.421-0.897c-2.789,1.449-5.119,3.581-6.963,6.11
			c-0.36,0.493-0.407,1.363-0.252,1.926c0.159,0.58,0.607,1.209,1.148,1.494c0.58,0.307,1.283,0.46,1.927,0.252
			c0.198-0.084,0.397-0.168,0.597-0.252C1518.917,921.05,1519.216,920.75,1519.438,920.375L1519.438,920.375z"/>
	</g>
	<g>
		<path style="fill:#7FBC5E;" d="M1516.525,940.111c0.784-0.274,1.579-0.51,2.389-0.699c0.346-0.081,0.693-0.153,1.044-0.217
			c0.233-0.043,0.468-0.078,0.701-0.118c0.518-0.087-0.524,0.057,0.04-0.006c1.596-0.177,3.191-0.206,4.791-0.061
			c1.307,0.119,2.558-1.234,2.5-2.5c-0.064-1.456-1.101-2.373-2.5-2.5c-3.454-0.313-7.021,0.135-10.294,1.279
			c-1.231,0.43-2.181,1.73-1.746,3.075C1513.845,939.583,1515.204,940.573,1516.525,940.111L1516.525,940.111z"/>
	</g>
	<g>
		<path style="fill:#7FBC5E;" d="M1491.139,931.945c0.554-3.363,0.484-6.723-0.306-10.047c-0.303-1.273-1.822-2.151-3.075-1.746
			c-1.326,0.43-2.07,1.711-1.746,3.076c0.179,0.753,0.319,1.512,0.423,2.28c-0.03-0.222-0.06-0.443-0.089-0.665
			c0.243,1.923,0.238,3.861-0.018,5.783c0.029-0.222,0.059-0.443,0.089-0.665c-0.031,0.219-0.064,0.437-0.101,0.655
			c-0.112,0.683-0.109,1.307,0.252,1.926c0.304,0.518,0.898,1.013,1.495,1.149C1489.269,933.966,1490.911,933.325,1491.139,931.945
			L1491.139,931.945z"/>
	</g>
	<g>
		<path style="fill:#7FBC5E;" d="M1518.771,851.903c0.235-0.244,0.486-0.468,0.755-0.676c-0.169,0.13-0.338,0.261-0.506,0.391
			c0.453-0.339,0.939-0.618,1.459-0.842c-0.199,0.084-0.398,0.168-0.598,0.252c0.594-0.246,1.21-0.413,1.847-0.503
			c-0.222,0.03-0.443,0.06-0.665,0.089c0.637-0.08,1.274-0.081,1.911,0.003c-0.222-0.03-0.443-0.06-0.665-0.089
			c0.561,0.083,1.101,0.229,1.625,0.444c-0.199-0.084-0.398-0.168-0.598-0.252c0.069,0.029,0.139,0.06,0.207,0.092
			c0.629,0.286,1.235,0.442,1.926,0.252c0.58-0.16,1.209-0.608,1.494-1.149c0.307-0.58,0.461-1.283,0.252-1.926
			c-0.188-0.583-0.566-1.229-1.148-1.494c-1.068-0.486-2.04-0.759-3.204-0.892c-0.938-0.107-1.872-0.015-2.799,0.154
			c-1.806,0.329-3.557,1.295-4.829,2.612c-0.909,0.941-1.006,2.611,0,3.536C1516.219,852.806,1517.8,852.908,1518.771,851.903
			L1518.771,851.903z"/>
	</g>
	<g>
		<path style="fill:#7FBC5E;" d="M1520.115,865.338c0.139,0.054,0.277,0.11,0.415,0.167c-0.199-0.084-0.398-0.168-0.597-0.252
			c1.135,0.485,2.199,1.111,3.179,1.864c-0.169-0.13-0.338-0.261-0.507-0.391c0.975,0.76,1.847,1.634,2.603,2.61
			c-0.13-0.169-0.26-0.337-0.391-0.506c0.34,0.446,0.653,0.909,0.941,1.39c0.671,1.122,2.278,1.633,3.421,0.896
			c1.129-0.728,1.614-2.219,0.896-3.42c-0.928-1.551-2.112-2.991-3.499-4.154c-1.562-1.311-3.234-2.287-5.133-3.026
			c-0.568-0.222-1.422-0.044-1.927,0.252c-0.519,0.303-1.014,0.898-1.148,1.494c-0.146,0.64-0.115,1.358,0.252,1.927
			C1518.993,864.767,1519.476,865.089,1520.115,865.338L1520.115,865.338z"/>
	</g>
	<g>
		<path style="fill:#7FBC5E;" d="M1530.883,887.26c2.58,0.789,5.161,1.578,7.741,2.367c1.251,0.382,2.781-0.455,3.075-1.746
			c0.309-1.352-0.406-2.666-1.746-3.075c-2.58-0.789-5.161-1.578-7.741-2.367c-1.251-0.382-2.781,0.455-3.075,1.746
			C1528.828,885.537,1529.544,886.851,1530.883,887.26L1530.883,887.26z"/>
	</g>
	<g>
		<path style="fill:#7FBC5E;" d="M1553.717,884.739c3.6-1.155,6.902-3.177,9.51-5.922c0.901-0.949,1.013-2.606,0-3.536
			c-0.977-0.896-2.573-1.013-3.535,0c-0.48,0.505-0.983,0.988-1.514,1.441c-0.105,0.09-0.212,0.18-0.32,0.268
			c-0.143,0.118-0.691,0.478-0.04,0.042c-0.27,0.18-0.522,0.388-0.79,0.572c-1.111,0.765-2.298,1.41-3.538,1.939
			c0.199-0.084,0.398-0.168,0.598-0.252c-0.558,0.233-1.124,0.442-1.699,0.626c-1.243,0.399-2.174,1.753-1.746,3.075
			C1551.044,884.238,1552.383,885.167,1553.717,884.739L1553.717,884.739z"/>
	</g>
	<g>
		<path style="fill:#7FBC5E;" d="M1547.338,869.171c2.053-1.048,3.756-2.653,5.063-4.537c0.183-0.287,0.282-0.597,0.297-0.93
			c0.074-0.332,0.06-0.665-0.045-0.997c-0.159-0.58-0.607-1.208-1.148-1.494c-0.58-0.307-1.283-0.46-1.927-0.252
			c-0.199,0.084-0.397,0.168-0.597,0.252c-0.376,0.222-0.675,0.521-0.897,0.897c-0.116,0.168-0.237,0.333-0.362,0.495
			c0.131-0.169,0.261-0.337,0.392-0.506c-0.589,0.754-1.267,1.43-2.021,2.017c0.169-0.13,0.337-0.261,0.506-0.391
			c-0.56,0.43-1.155,0.807-1.783,1.128c-0.541,0.275-0.992,0.922-1.149,1.494c-0.165,0.598-0.091,1.395,0.252,1.926
			c0.345,0.534,0.856,1.004,1.494,1.149C1546.089,869.578,1546.716,869.489,1547.338,869.171L1547.338,869.171z"/>
	</g>
	<g>
		<path style="fill:#7FBC5E;" d="M1541.843,810.331c0.253-4.373,0.507-8.746,0.761-13.118c0.076-1.308-1.204-2.558-2.5-2.5
			c-1.42,0.063-2.419,1.099-2.5,2.5c-0.254,4.372-0.508,8.745-0.761,13.118c-0.076,1.308,1.204,2.558,2.5,2.5
			C1540.762,812.768,1541.761,811.732,1541.843,810.331L1541.843,810.331z"/>
	</g>
	<g>
		<path style="fill:#7FBC5E;" d="M1553.5,783.077c1.061-1.237,2.241-2.362,3.526-3.363c-0.169,0.13-0.337,0.261-0.506,0.391
			c0.841-0.649,1.721-1.242,2.639-1.778c0.542-0.317,0.981-0.888,1.148-1.494c0.165-0.598,0.091-1.395-0.252-1.926
			c-0.734-1.139-2.212-1.602-3.421-0.897c-2.497,1.458-4.787,3.336-6.671,5.532c-0.438,0.511-0.732,1.076-0.732,1.768
			c0,0.613,0.272,1.346,0.732,1.768c0.477,0.437,1.103,0.762,1.768,0.732C1552.365,783.781,1553.071,783.576,1553.5,783.077
			L1553.5,783.077z"/>
	</g>
	<g>
		<path style="fill:#7FBC5E;" d="M1555.212,800.56c1.97-0.596,3.939-1.193,5.909-1.789c0.612-0.185,1.169-0.592,1.494-1.149
			c0.313-0.536,0.447-1.326,0.252-1.926c-0.408-1.262-1.734-2.152-3.075-1.746c-1.97,0.596-3.939,1.193-5.909,1.789
			c-0.612,0.185-1.169,0.592-1.494,1.149c-0.314,0.536-0.446,1.326-0.252,1.926C1552.545,800.076,1553.871,800.966,1555.212,800.56
			L1555.212,800.56z"/>
	</g>
	<g>
		<path style="fill:#7FBC5E;" d="M1555.571,825.46c1.741,1.233,3.481,2.466,5.223,3.699c0.503,0.355,1.354,0.409,1.927,0.252
			c0.58-0.16,1.209-0.608,1.494-1.149c0.307-0.581,0.46-1.283,0.252-1.926c-0.084-0.199-0.168-0.398-0.252-0.598
			c-0.223-0.375-0.521-0.674-0.896-0.896c-1.741-1.233-3.482-2.466-5.224-3.699c-0.502-0.355-1.354-0.409-1.927-0.252
			c-0.58,0.16-1.208,0.608-1.494,1.149c-0.306,0.58-0.46,1.283-0.252,1.926c0.084,0.199,0.168,0.398,0.252,0.597
			C1554.896,824.939,1555.195,825.238,1555.571,825.46L1555.571,825.46z"/>
	</g>
	<g>
		<path style="fill:#7FBC5E;" d="M1586.324,833.299c1.023-0.454,1.994-1.022,2.888-1.697c1.047-0.792,2.023-1.633,2.87-2.639
			c0.436-0.518,0.732-1.069,0.732-1.768c0-0.613-0.272-1.346-0.732-1.768c-0.477-0.437-1.102-0.762-1.768-0.732
			c-0.629,0.028-1.346,0.23-1.768,0.732c-0.676,0.802-1.432,1.527-2.261,2.169c0.169-0.13,0.337-0.26,0.506-0.391
			c-0.925,0.708-1.927,1.304-2.991,1.776c-0.536,0.238-1.001,0.955-1.149,1.494c-0.165,0.599-0.09,1.396,0.252,1.927
			c0.345,0.534,0.856,1.003,1.494,1.149c0.222,0.03,0.443,0.06,0.665,0.089C1585.514,833.639,1585.934,833.525,1586.324,833.299
			L1586.324,833.299z"/>
	</g>
	<g>
		<path style="fill:#7FBC5E;" d="M1630.214,808.482c2.169,0.714,4.339,1.428,6.508,2.143c1.243,0.409,2.786-0.474,3.075-1.746
			c0.313-1.376-0.415-2.637-1.746-3.075c-2.169-0.714-4.338-1.428-6.508-2.143c-1.243-0.409-2.785,0.475-3.075,1.746
			C1628.154,806.783,1628.883,808.044,1630.214,808.482L1630.214,808.482z"/>
	</g>
	<g>
		<path style="fill:#7FBC5E;" d="M1583.484,762.544c2.685,0.035,5.403-0.332,7.982-1.08c1.255-0.364,2.166-1.778,1.746-3.075
			c-0.413-1.275-1.73-2.136-3.075-1.746c-1.211,0.351-2.442,0.611-3.69,0.78c0.221-0.03,0.442-0.06,0.664-0.089
			c-1.203,0.156-2.413,0.227-3.627,0.211c-1.308-0.017-2.56,1.162-2.5,2.5C1581.046,761.414,1582.083,762.526,1583.484,762.544
			L1583.484,762.544z"/>
	</g>
	<g>
		<path style="fill:#7FBC5E;" d="M1587.15,788.33c0.147,0.105,0.293,0.213,0.438,0.324c-0.169-0.13-0.338-0.26-0.506-0.391
			c0.859,0.67,1.632,1.443,2.303,2.303c-0.131-0.169-0.261-0.337-0.392-0.506c0.36,0.467,0.689,0.957,0.985,1.467
			c0.313,0.543,0.891,0.983,1.494,1.149c0.599,0.165,1.396,0.09,1.927-0.252c0.533-0.344,1.003-0.856,1.148-1.494
			c0.149-0.658,0.093-1.332-0.252-1.926c-0.57-0.985-1.267-1.913-2.032-2.754c-0.771-0.847-1.659-1.574-2.59-2.237
			c-0.287-0.183-0.597-0.282-0.93-0.297c-0.332-0.074-0.664-0.06-0.997,0.045c-0.579,0.16-1.208,0.608-1.494,1.149
			c-0.306,0.58-0.46,1.283-0.252,1.926c0.084,0.199,0.168,0.398,0.252,0.597C1586.476,787.809,1586.774,788.108,1587.15,788.33
			L1587.15,788.33z"/>
	</g>
	<g>
		<path style="fill:#7FBC5E;" d="M1630.94,771.766c0.704-2.46,1.495-4.893,2.381-7.293c0.919-2.486,1.728-4.425,2.796-6.74
			c0.546-1.185,0.375-2.749-0.897-3.421c-1.102-0.582-2.836-0.371-3.42,0.897c-2.271,4.928-4.188,10.01-5.681,15.228
			c-0.359,1.256,0.438,2.777,1.746,3.075C1629.197,773.815,1630.556,773.111,1630.94,771.766L1630.94,771.766z"/>
	</g>
	<g>
		<path style="fill:#7FBC5E;" d="M1646.801,746.696c1.186-0.415,2.393-0.756,3.623-1.01c0.526-0.108,1.057-0.203,1.589-0.279
			c-0.222,0.028-0.176,0.023,0.135-0.016c0.178-0.021,0.356-0.04,0.534-0.057c0.269-0.026,0.536-0.048,0.805-0.066
			c1.162-0.078,2.329-0.083,3.493-0.015c1.402,0.081,1.973,0.165,3.329,0.442c1.277,0.261,2.762-0.369,3.075-1.746
			c0.284-1.247-0.376-2.795-1.746-3.075c-5.373-1.098-10.977-0.814-16.166,1c-1.231,0.43-2.182,1.73-1.746,3.075
			C1644.12,746.167,1645.479,747.158,1646.801,746.696L1646.801,746.696z"/>
	</g>
	<g>
		<path style="fill:#7FBC5E;" d="M1661.562,745.378c3.217,0,3.222-5,0-5C1658.344,740.378,1658.339,745.378,1661.562,745.378
			L1661.562,745.378z"/>
	</g>
	<g>
		<path style="fill:#7FBC5E;" d="M1647.821,762.146c2.35,0.658,4.698,1.315,7.048,1.973c1.259,0.352,2.776-0.434,3.075-1.746
			c0.303-1.326-0.397-2.698-1.746-3.075c-2.349-0.657-4.698-1.315-7.048-1.973c-1.258-0.352-2.776,0.434-3.075,1.746
			C1645.773,760.397,1646.474,761.769,1647.821,762.146L1647.821,762.146z"/>
	</g>
	<g>
		<path style="fill:#7FBC5E;" d="M1676.245,752.641c1.388-1.953,2.774-3.906,4.162-5.859c0.356-0.501,0.409-1.355,0.252-1.926
			c-0.159-0.58-0.607-1.208-1.148-1.494c-0.58-0.307-1.283-0.46-1.927-0.252c-0.65,0.21-1.099,0.592-1.494,1.149
			c-1.388,1.953-2.774,3.906-4.162,5.859c-0.356,0.501-0.409,1.355-0.252,1.926c0.159,0.58,0.607,1.208,1.148,1.494
			c0.58,0.306,1.283,0.46,1.927,0.252C1675.401,753.579,1675.85,753.197,1676.245,752.641L1676.245,752.641z"/>
	</g>
	<path style="fill:#588742;" d="M1574.593,936.954c0,0,30.515-21.956,71.996-14.608c41.481,7.347,91.463,40.319,91.463,40.319
		s11.766,10.261,28.698-8.688c16.934-18.949,14.512-34.251,14.512-34.251s-36.291-19.424-59.381-50.032
		s-32.255-86.594-32.255-86.594l-18.329,10.828c0,0,4.897,33.1,12.241,48.896c7.345,15.796,15.327,16.593,11.81,23.239
		s-36.906-19.63-36.906-19.63l-14.056,4.255c0,0,24.252,18.231,21.344,27.005c-2.909,8.774-53.688-5.542-53.688-5.542l-1.57,17.061
		c0,0,28.178-0.402,27.838,5.783c-0.339,6.185-53.691,20.081-53.691,20.081L1574.593,936.954z"/>
	<path style="fill:#71AD55;" d="M1701.179,877.947c-1.021,2.221-0.082,4.934,1.57,6.734c1.653,1.8,3.899,2.914,6.031,4.108
		c19.176,10.751,32.336,30.644,52.365,39.708c2.92,1.321,6.905,2.157,8.883-0.365c1.271-1.621,1.028-4.045-0.038-5.807
		c-1.066-1.762-2.794-3.006-4.494-4.168c-11.41-7.8-23.684-14.231-35.133-21.969c-5.643-3.814-11.108-7.93-16.035-12.646
		C1712.029,881.342,1704.479,870.761,1701.179,877.947z"/>
</g>
<g>
	<ellipse style="fill:#E7F2F0;" cx="769.27" cy="1785.069" rx="289.407" ry="54.469"/>
	<g>
		<path style="fill:#D3B594;" d="M1000.717,1757.126v-40.454l-231.283-29.091l-231.283,31.55v37.995c0,0-1.951,18.3,68.199,42.479
			c95.924,33.062,251.801,22.18,326.168,0C1003.623,1778.396,1000.717,1757.126,1000.717,1757.126z"/>
		<path style="fill:#BFA388;" d="M932.348,1799.604c71.104-21.208,68.199-42.479,68.199-42.479v-40.454l-106.038-13.338
			c-0.168,0.101-0.337,0.198-0.504,0.299c-12.159,7.342-23.845,13.948-24.761,29.075c-0.962,15.886,7.7,35.172,0.802,50.362
			c-4.246,9.352-15.406,13.045-25.431,15.277c-76.574,17.052-156.717,6.572-232.972-11.857
			c-23.813-5.756-47.982-12.524-68.025-26.612c-1.648-1.158-3.635-2.323-5.636-3.092v0.34c0,0-1.951,18.3,68.199,42.479
			C702.104,1832.666,857.981,1821.784,932.348,1799.604z"/>
		<path style="fill:#D3B594;" d="M1240.648,1299.088H767.121H298.194c0,0-7.248,96.707,46.811,213.432
			c81.077,175.062,193.146,206.611,193.146,206.611l228.97,4.422l228.97-4.422c0,0,112.069-31.55,193.146-206.611
			C1243.296,1395.795,1240.648,1299.088,1240.648,1299.088z"/>
		<path style="fill:#BFA388;" d="M1240.486,1299.088h-168.175c0,0,21.85,98.247-37.768,212.232
			c-65.978,126.145-128.497,161.241-204.963,187.256c-94.879,32.278-205.968,24.174-205.968,24.174s111.393,25.449,200.707,25.449
			c88.823,0,171.611-29.068,171.611-29.068s112.068-31.55,193.146-206.611C1243.134,1395.795,1240.486,1299.088,1240.486,1299.088z"
			/>
		<path style="fill:#F7D3B0;" d="M298.194,1299.088c4.135,70.335,177.46,131.896,471.24,131.896
			c303.347,0,468.816-46.764,471.214-131.896c2.398-85.132-161.872-147.577-464.033-146.283
			C522.137,1153.894,308.986,1171.989,298.194,1299.088L298.194,1299.088z"/>
		<path style="fill:#E2BFA3;" d="M318.597,1298.312c3.957,62.751,169.778,117.675,450.843,117.675
			c290.217,0,448.524-41.721,450.818-117.675c2.294-75.953-154.866-131.665-443.948-130.512
			C532.846,1168.771,328.921,1184.916,318.597,1298.312L318.597,1298.312z"/>
		<path style="opacity:0.38;fill:#FFFFFF;" d="M411.42,1447.408c-4.875,12.971-0.737,27.455,4.126,40.43
			c13.329,35.557,31.999,68.93,53.116,100.488c15.188,22.696,34.194,46.176,61.029,51.242c9.42,1.777,19.56,0.983,27.947-3.66
			c8.387-4.643,14.694-13.484,14.924-23.068c0.234-9.755-5.442-18.525-10.573-26.827c-12.544-20.295-23.117-42.078-28.395-65.347
			c-3.507-15.459-4.797-31.859-12.731-45.585C507.257,1451.543,426.707,1406.73,411.42,1447.408z"/>
		<path style="opacity:0.38;fill:#FFFFFF;" d="M573.735,1734.529c-2.216,0.068-4.527,0.283-6.408,1.459
			c-3.92,2.45-4.393,8.338-2.152,12.382c2.241,4.044,6.402,6.606,10.504,8.739c17.014,8.847,35.925,13.366,54.794,16.79
			c7.24,1.313,14.966,2.431,21.748-0.425c6.782-2.854,11.763-11.233,8.369-17.763c-3.224-6.202-11.433-7.324-18.393-7.967
			C619.494,1745.648,595.956,1733.842,573.735,1734.529z"/>
		<path style="fill:#CEAD97;" d="M318.597,1298.531c3.172,50.303,110.367,95.575,297.559,111.557
			c-10.049-6.818-19.827-14.038-29.286-21.651c-57.919-46.62-104.383-107.535-133.631-175.918
			c-2.461-5.753-5.144-11.788-7.698-17.967C371.104,1213.401,323.451,1245.217,318.597,1298.531z"/>
	</g>
	<path style="fill:#DD9F3C;" d="M1204.579,1334.322c-45.313-54.851-193.333-91.746-429.129-90.805
		c-207.746,0.829-386.698,12.709-441.15,86.627c48.67,48.387,202.178,85.842,434.279,85.842
		C1009.038,1415.986,1158.94,1387.345,1204.579,1334.322z"/>
	<path style="fill:#FFB83B;" d="M559.011,1307.701c4.115-2.21,8.759-3.222,13.052-5.063c6.208-2.664,11.531-6.99,17.286-10.527
		c12.814-7.873,28.01-11.812,43.036-11.152c3.649,0.161,7.438,0.637,10.504,2.622c5.198,3.367,6.948,10.017,10.363,15.184
		c5.921,8.959,16.682,13.198,25.012,19.975c10.467,8.514,17.135,21.535,17.925,35.005c0.143,2.434,0.071,5.004-1.145,7.118
		c-2.123,3.689-6.862,4.752-11.06,5.455c-17.221,2.884-34.441,5.769-51.663,8.652c-10.258,1.718-20.562,3.44-30.961,3.614
		c-12.32,0.206-24.846-1.844-35.86-7.369c-10.179-5.106-24.92-16.803-25.101-29.232
		C540.222,1329.82,548.218,1313.499,559.011,1307.701z"/>
	<path style="fill:#FFB83B;" d="M757.944,1252.858c-2.524,1.375-5.191,2.891-6.517,5.44c-1.03,1.98-1.095,4.303-1.139,6.534
		c-0.13,6.685-0.261,13.37-0.392,20.056c-0.043,2.208-0.042,4.574,1.191,6.406c1.248,1.854,3.475,2.742,5.567,3.526
		c10.189,3.821,20.377,7.642,30.566,11.462c11.52,4.32,23.229,8.684,35.495,9.646c22.061,1.729,43.308-7.63,63.455-16.782
		c2.063-9.075,2.657-18.483,1.751-27.746c-0.495-5.059-1.505-10.25-4.414-14.418c-2.641-3.785-6.614-6.398-10.554-8.801
		c-12.369-7.544-25.422-13.964-38.948-19.156c-6.302-2.419-14.635-5.968-21.55-5.169c-5.45,0.629-9.475,4.452-14.292,7.097
		C784.782,1238.3,771.351,1245.557,757.944,1252.858z"/>
	<path style="fill:#FFB83B;" d="M965.984,1335.457c-5.525,1.248-11.245,2.683-15.609,6.295c-2.903,2.402-5.005,5.611-7.062,8.769
		c-5.024,7.715-10.049,15.429-15.073,23.143c-0.709,1.089-1.441,2.247-1.492,3.545c-0.099,2.531,2.329,4.365,4.569,5.545
		c14.195,7.474,30.961,7.7,47.004,7.667c11.357-0.023,22.714-0.092,34.068-0.313c5.726-0.111,11.535-0.274,17.006-1.963
		c6.232-1.923,27.305-4.859,32.882-8.243c12.636-7.667,28.06-11.545,25.105-17.979c-0.031-0.067-20.617-21.439-23.33-23.296
		c-9.255-6.332-19.771-11.085-30.732-13.527c-10.016-2.232-16.653,0.224-26.229,2.453
		C993.526,1330.707,979.595,1332.383,965.984,1335.457z"/>
	<path style="fill:#FFB83B;" d="M383.916,1291.769c-2.673,8.184-1.431,17.555,3.284,24.759c1.005,1.536,2.182,2.999,3.702,4.028
		c2.295,1.556,5.146,1.988,7.89,2.381c19.068,2.729,38.136,5.458,57.204,8.187c2.249,0.321,4.57,0.64,6.767,0.059
		c2.567-0.679,4.657-2.502,6.583-4.329c7.944-7.535,14.879-16.131,20.565-25.487c0.78-1.283,1.563-2.693,1.424-4.188
		c-0.159-1.713-1.476-3.062-2.728-4.241c-6.419-6.048-13.189-11.723-20.265-16.987c-7.007-5.213-14.844-10.2-23.575-10.409
		c-4.326-0.103-8.581,0.986-12.77,2.068C413.873,1272.286,391.448,1271.685,383.916,1291.769z"/>
	<path style="fill:#FFB83B;" d="M965.964,1247.079c6.971-3.471,14.892-4.452,22.658-5.024c14.063-1.037,28.211-0.907,42.252,0.39
		c2.504,0.231,5.092,0.527,7.258,1.804c1.592,0.938,2.846,2.345,4.065,3.733c6.817,7.77,13.409,15.735,19.765,23.886
		c1.435,1.84,2.932,3.919,2.78,6.247c-0.161,2.46-2.128,4.408-4.168,5.793c-7.207,4.893-16.352,5.708-25.054,6.097
		c-18.931,0.846-37.92,0.389-56.789-1.369c-7.017-0.653-14.36-1.614-20.075-5.737
		C944.897,1272.97,953.425,1253.322,965.964,1247.079z"/>
	<path style="opacity:0.38;fill:#FFFFFF;" d="M614.401,1287.693c-3.988,1.19-7.123,4.249-9.828,7.411
		c-2.706,3.162-5.217,6.589-8.64,8.957c-5.353,3.702-12.16,4.324-18.518,5.722c-6.357,1.398-13.162,4.25-15.779,10.209
		c-0.934,2.127-1.241,4.487-1.189,6.809c0.041,1.847,0.317,3.732,1.192,5.359c1.293,2.403,3.713,3.951,6.03,5.394
		c6.876,4.279,13.753,8.558,20.628,12.837c1.628,1.013,3.317,2.049,5.215,2.326c3.869,0.563,7.431-2.128,10.105-4.979
		c2.469-2.634,4.71-5.712,5.248-9.282c0.864-5.738-2.82-11.345-2.386-17.132c0.644-8.579,9.022-13.237,14.037-19.191
		C625.956,1295.676,627.037,1283.925,614.401,1287.693z"/>
	<path style="opacity:0.38;fill:#FFFFFF;" d="M398.526,1284.605c-2.54,1.819-5.045,4.424-4.84,7.54
		c0.202,3.077,2.926,5.294,5.418,7.11c2.616,1.905,5.829,3.91,8.872,2.807c1.931-0.701,3.213-2.486,4.769-3.828
		c7.184-6.192,19.093-2.331,26.995-7.576c3.537-2.348,5.837-6.458,5.988-10.7c0.051-1.428-0.153-2.929-0.982-4.093
		c-0.702-0.985-1.792-1.637-2.93-2.05c-3.915-1.419-8.242-0.241-12.236,0.942C420.198,1277.537,406.23,1278.441,398.526,1284.605z"
		/>
	<path style="opacity:0.38;fill:#FFFFFF;" d="M766.247,1260.354c-0.481,0.766-0.935,1.62-0.864,2.522
		c0.127,1.607,1.787,2.595,3.286,3.191c9.578,3.81,20.387,2.955,30.311,5.743c5.852,1.644,11.271,4.52,16.945,6.7
		c5.673,2.182,11.874,3.676,17.814,2.392c5.941-1.284,11.47-5.976,12.105-12.02c0.883-8.394-7.164-14.845-10.019-22.787
		c-0.797-2.218-1.198-4.601-2.365-6.648c-8.223-14.436-23.791-3.61-33.444,0.835
		C788.302,1245.679,773.592,1248.664,766.247,1260.354z"/>
	<path style="opacity:0.38;fill:#FFFFFF;" d="M969.879,1351.169c14.505-0.545,28.426,5.073,42.574,8.318
		c7.882,1.808,16.892,2.667,23.382-2.157c4.494-3.342,6.921-8.975,7.257-14.564c0.138-2.297-0.062-4.681-1.104-6.731
		c-1.846-3.632-6.048-5.565-10.112-5.854c-4.063-0.289-8.083,0.785-12.039,1.758c-16.243,3.992-32.47,5.508-49.032,7.273
		c-3.334,0.355-10.894,0.355-12.309,4.379C956.097,1350.413,965.769,1351.323,969.879,1351.169z"/>
	<path style="opacity:0.38;fill:#FFFFFF;" d="M965.906,1274.128c1.389,1.201,3.455,2.109,5.008,1.128
		c0.811-0.514,1.266-1.422,1.751-2.25c5.073-8.651,16.522-11.389,26.498-10.354c9.975,1.035,19.469,4.938,29.425,6.144
		c4.744,0.573,10.648-0.134,12.545-4.52c1.092-2.525,0.39-5.501-0.928-7.917c-2.992-5.484-8.874-8.939-14.964-10.338
		c-6.09-1.397-12.438-0.985-18.656-0.364c-10.261,1.023-20.468,2.595-30.562,4.704c-6.168,1.289-10.82,2.25-13.234,8.402
		C960.77,1263.91,961.566,1270.375,965.906,1274.128z"/>
	<path style="fill:#CE8111;" d="M714.386,1358.198c-0.979,7.12-6.246,13.072-12.458,16.688c-6.212,3.615-13.34,5.265-20.346,6.866
		c-8.45,1.932-16.9,3.863-25.35,5.796c-2.311,0.528-4.963,1.338-5.817,3.549c-0.796,2.06,0.488,4.458,2.354,5.639
		c1.865,1.181,4.155,1.43,6.356,1.603c21.567,1.697,43.469-0.984,63.99-7.832c5.722-1.91,11.434-4.194,16.138-7.97
		c4.705-3.775,8.332-9.258,8.667-15.28c0.4-7.191-3.797-13.787-8.282-19.423c-3.185-4.001-6.693-7.892-11.159-10.382
		c-5.638-3.145-12.287-3.791-18.723-4.28c-3.012-0.229-6.456-0.282-8.545,1.899c-4.758,4.971,4.439,6.78,6.827,8.372
		C712.714,1346.56,715.142,1352.698,714.386,1358.198z"/>
	<path style="fill:#CE8111;" d="M446.018,1338.334c11.459,0.092,23.337-0.771,33.45-6.162c4.034-2.15,7.749-5.002,12.114-6.359
		c4.365-1.357,9.808-0.774,12.503,2.918c2.503,3.43,1.709,8.489-0.92,11.823c-2.629,3.334-6.686,5.224-10.75,6.454
		c-6.881,2.082-14.124,2.597-21.296,3.098c-19.889,1.392-40.492,2.688-59.179-4.263c-3.474-1.291-7.156-3.175-8.492-6.632
		c-0.282-0.729-0.44-1.56-0.142-2.281c0.374-0.903,1.347-1.389,2.264-1.729c6.424-2.373,10.485-0.277,16.401,1.342
		C429.51,1338.607,438.246,1338.271,446.018,1338.334z"/>
	<path style="fill:#CE8111;" d="M733.912,1281.114c-1.131,5.233,0.561,10.99,4.345,14.777c6.053,6.059,16.04,6.573,22.28,12.439
		c-16.389,4.556-33.781-0.972-49.505-7.462c-4.602-1.9-9.304-3.98-12.72-7.602c-3.416-3.622-5.248-9.194-3.14-13.704
		c2.279-4.875,8.063-6.858,13.289-8.144c10.907-2.681,22.035-4.465,33.234-5.327c5.383-0.415,6.664,2.595,2.991,4.95
		c-1.606,1.029-4.119,0.303-6.164,1.896C736.148,1274.786,734.529,1278.257,733.912,1281.114z"/>
	<path style="fill:#CE8111;" d="M898.861,1302.159c4.046-3.838,6.904-10.317,3.678-14.866c-1.796-2.532-5.178-3.952-6.066-6.927
		c9.659-3.112,20.164,0.675,29.058,5.562c3.684,2.024,7.576,4.666,8.522,8.761c0.783,3.386-0.756,6.984-3.181,9.474
		c-2.425,2.49-5.627,4.055-8.821,5.425c-11.785,5.058-24.422,8.099-37.208,9.044c-8.335,0.615-23.411,2.254-30.645-2.406
		c4.552-3.07,12.117-3.044,17.501-3.892C881.475,1310.793,891.364,1309.271,898.861,1302.159z"/>
	<path style="fill:#CE8111;" d="M910.464,1367.76c-2.546,2.389-4.996,5.093-5.983,8.442c-0.987,3.35-0.103,7.476,2.863,9.316
		c2.396,1.487,5.45,1.185,8.197,1.822c2.747,0.637,5.602,3.285,4.503,5.882c-0.427,1.011-1.356,1.708-2.276,2.306
		c-11.688,7.598-26.868,6.396-40.619,4.107c-8.666-1.442-17.278-3.205-25.814-5.284c-3.869-0.942-8.037-2.155-10.374-5.38
		c-2.383-3.287-2.141-7.971-0.229-11.552c1.912-3.582,5.228-6.214,8.723-8.28c7.993-4.725,17.177-6.95,26.206-9.114
		c16.565-3.971,38.738-11.311,55.727-7.025C926.889,1358.896,916.269,1362.313,910.464,1367.76z"/>
	<path style="fill:#CE8111;" d="M1075.35,1288.034c-1.787,2.112-4.538,3.123-7.212,3.832c-8.269,2.192-17.359,2.472-24.424,7.294
		c-1.033,0.705-2.071,1.604-2.307,2.831c-0.433,2.253,1.997,3.997,4.204,4.622c2.524,0.714,5.174,0.821,7.795,0.924
		c13.911,0.545,28.086,1.061,41.502-2.659c4.897-1.357,10.29-3.987,11.389-8.948c1.213-5.475-3.527-10.449-8.354-13.303
		c-5.852-3.459-12.491-5.577-19.265-6.147c-1.367-0.114-2.888-0.12-3.927,0.774
		C1072.594,1279.109,1078.857,1283.888,1075.35,1288.034z"/>
	<path style="fill:#629B4B;" d="M524.157,1287.063c-2.272-0.058-4.88-0.378-6.144-2.268c-1.331-1.987-0.385-4.844,1.432-6.399
		s4.249-2.137,6.581-2.668c-3.009-0.22-5.979-0.949-8.749-2.146c-0.847-0.366-1.709-0.804-2.259-1.545
		c-1.198-1.615-0.372-4.072,1.214-5.31c1.586-1.236,3.674-1.571,5.663-1.865c-3.734-0.381-6.543-4.629-5.432-8.215
		c1.112-3.585,5.831-5.499,9.126-3.7c-2.501-2.408-3.544-6.498-1.783-9.49c1.761-2.992,6.587-3.851,8.819-1.19
		c0.754-4.223,2.706-9.512,6.996-9.478c4.678,0.037,6.531,6.427,10.77,8.405c0.249-3.504,1.425-7.055,3.89-9.558
		c2.464-2.503,6.357-3.745,9.642-2.5c3.285,1.245,5.423,5.28,4.069,8.521c2.997-2.05,6.186-4.005,9.761-4.641
		c3.574-0.636,7.641,0.312,9.851,3.192c1.962,2.559,2.107,6.153,1.166,9.237c-0.94,3.084-2.824,5.779-4.678,8.417
		c5.151-1.615,11.316-3.06,15.497,0.354c4.445,3.629,3.049,12.027-2.331,14.023c4.363-1.486,10.491-2.28,12.388,1.92
		c1.305,2.889-0.633,6.309-3.192,8.179c-3.317,2.423-7.518,3.215-11.574,3.866c-12.739,2.045-26.456,4.432-39.385,3.564
		C544.925,1285.062,534.76,1287.332,524.157,1287.063z"/>
	<path style="fill:#629B4B;" d="M766.129,1381.905c-1.41,1.077-2.875,3.119-1.628,4.382c0.564,0.57,1.45,0.637,2.252,0.645
		c5.868,0.061,11.746-1.109,17.143-3.415c-3.557,1.437-2.831,7.351,0.536,9.19c3.366,1.84,7.587,0.684,10.981-1.106
		c4.467-2.354,8.381-5.752,11.34-9.844c0.899,3.216,4.097,5.41,7.396,5.927c3.298,0.516,6.663-0.378,9.754-1.642
		c5.712-2.336,10.887-5.977,15.014-10.566c8.635,3.194,18.934,1.359,25.934-4.621c2.91-2.485,5.391-6.47,3.86-9.976
		c-1.834-4.202-7.63-4.395-12.19-3.916c2.14-1.942,5.087-2.672,7.622-4.063c2.534-1.39,4.872-4.084,4.159-6.886
		c-0.685-2.688-3.767-3.965-6.516-4.336c-6.735-0.91-13.831,1.373-18.773,6.038c0.596-5.055-4.458-9.559-9.548-9.575
		c-5.09-0.016-9.677,3.46-12.386,7.769c-2.874-4.938-9.697-6.631-15.08-4.712c-5.382,1.919-9.331,6.731-11.538,12.002
		c-2.813,6.72-0.942,14.087-7.792,17.372C779.469,1374.025,772.551,1377.004,766.129,1381.905z"/>
	<path style="fill:#629B4B;" d="M891.273,1221.133c4.603-8.549,12.596-15.212,21.833-18.201c0.395,3.491-0.335,7.102-2.057,10.166
		c5.821-3.026,12.239-4.895,18.773-5.469c1.52-0.133,3.419,0.017,4.035,1.414c0.335,0.761,0.144,1.642-0.093,2.439
		c-1.105,3.712-3.124,7.148-5.828,9.922c5.089-2.502,11.286-2.628,16.472-0.335c3.057,1.352,6.042,4.155,5.602,7.468
		c-0.326,2.459-2.414,4.262-4.424,5.714c-4.308,3.115-8.945,5.772-13.811,7.915c4.119,0.173,8.182,1.508,11.602,3.811
		c1.101,0.741,2.257,1.926,1.877,3.197c-0.205,0.685-0.813,1.164-1.414,1.549c-2.737,1.752-6.091,2.52-9.318,2.132
		c2.412,0.652,4.658,1.908,6.476,3.621c0.461,0.436,0.917,0.94,1.012,1.566c0.233,1.536-1.659,2.441-3.186,2.723
		c-8.505,1.569-17.124,0.01-25.423-1.945c-6.518-1.535-14.939-2.455-20.775-5.909C882.5,1246.917,886.674,1229.411,891.273,1221.133
		z"/>
	<path style="fill:#629B4B;" d="M1105.971,1347.481c-1.31,0.818-2.676,1.658-4.211,1.833c-1.299,0.148-2.615-0.2-3.799-0.756
		c-5.215-2.444-7.823-9.316-5.544-14.604c2.279-5.29,9.064-8.113,14.423-6.003c-1.68-5.588-2.647-11.868-0.01-17.073
		c2.638-5.206,10.17-8.112,14.564-4.273c2.132-5.124,4.513-10.555,9.165-13.583c4.651-3.028,12.244-2.107,14.146,3.106
		c2.965-4.012,6.757-8.443,11.741-8.236c4.346,0.181,7.868,4.266,8.353,8.588c0.484,4.322-1.548,8.622-4.478,11.836
		c-2.93,3.215-6.697,5.524-10.409,7.791c4.589,1.053,8.121,5.592,8.014,10.299c-0.107,4.708-3.84,9.082-8.473,9.926
		c3.3,1.387,5.098,5.582,3.826,8.928c-1.272,3.345-5.402,5.287-8.79,4.131c-1.741-0.593-3.168-1.84-4.547-3.057
		c-3.915-3.457-9.834-11.505-15.393-10.368C1118.696,1337.162,1111.049,1344.273,1105.971,1347.481z"/>
</g>
<g>
	<path style="fill:#E7F2F0;" d="M2296.374,1893.288c7.275,5.445,16.263,8.566,25.348,8.804c-1.819,4.501-3.502,10.076-0.423,13.83
		c1.364,1.663,3.417,2.576,5.4,3.41c25.104,10.557,54.186,17.414,79.165,6.566c6.522-2.832,12.744-7.018,16.336-13.154
		c3.591-6.137,3.98-14.492-0.432-20.068c-4.323-5.465-11.813-7.04-18.675-8.255c3.023-7.335,10.447-12.646,18.367-13.139
		c7.919-0.492,15.943,3.858,19.853,10.763c1.266,2.235,2.221,4.812,4.325,6.283c4.543,3.175,10.637-0.757,16.178-0.617
		c7.478,0.188,13.171,7.839,20.646,8.091c6.793,0.229,12.174-5.646,18.69-7.579c6.301-1.869,13.211,0.085,19.587-1.51
		c9.127-2.282,15.197-11.697,15.932-21.076s-2.91-18.586-7.672-26.7c7.489,1.07,15.32-4.488,16.779-11.912
		s-3.685-15.533-11.022-17.378c0.505-5.363,6.525-8.649,11.913-8.633s10.481,2.285,15.746,3.431
		c11.17,2.43,22.777-0.248,33.746-3.469c6.698-1.966,13.591-4.288,18.596-9.156c5.004-4.867,7.511-13.003,3.95-19.008
		c-4.145-6.988-14.097-7.89-21.907-5.649c-7.81,2.24-14.973,6.75-23.029,7.802c-10.045,1.312-20.122-2.931-30.222-2.134
		c-10.677,0.842-20.358,7.227-31.05,7.844c-3.502,0.201-7.195-0.19-10.352,1.34c-5.383,2.609-6.893,9.594-6.635,15.57
		s1.578,12.217-0.646,17.771c-3.991,9.958-18.34,15.153-17.661,25.86c0.134,2.106,0.899,4.221,0.445,6.282
		c-1.048,4.755-7.379,5.838-12.192,5.106c-4.813-0.732-10.364-2.053-14.063,1.112c-1.979,1.692-2.883,4.308-4.504,6.345
		c-3.099,3.897-8.363,5.229-13.271,6.069c-12.932,2.21-26.166,2.643-39.214,1.281c-6.31-0.658-12.782-1.723-18.913-0.094
		c-4.885,1.298-9.161,4.213-13.803,6.211c-12.036,5.183-22.169-0.061-34.071,1.308
		C2316.061,1876.165,2303.879,1884.863,2296.374,1893.288z"/>
	<ellipse style="fill:#E7F2F0;" cx="2035.993" cy="1773.521" rx="289.407" ry="54.469"/>
	<path style="fill:#568441;" d="M2617.751,1729.045c-3.445-3.64-9.128-3.671-14.134-3.445c3.186-1.293,4.728-5.471,3.363-8.627
		c-1.364-3.157-5.222-4.905-8.564-4.1c-2.48,0.598-4.506,2.338-6.389,4.061c-9.541,8.736-18.117,18.527-25.523,29.135
		c1.559-5.442,0.881-11.49-1.844-16.452c-2.404-4.379-7.153-8.108-12.047-7.104c-4.895,1.003-7.333,8.739-2.961,11.156
		c-5.097-2.81-11.098-3.95-16.869-3.205c-2.657,0.344-5.4,1.155-7.244,3.1c-8.278,8.73,9.26,29.24,17.42,36.985
		c-13.002,3.631-26.437,5.708-39.935,6.063c-3.374,0.089-6.75,0.063-10.123-0.054c7.456-7.48,14.198-15.673,19.933-24.529
		c9.333-14.414,15.886-30.593,18.461-47.604c0.041-0.268,0.071-0.537,0.109-0.806c0.683-0.038,1.364-0.083,2.045-0.143
		c-0.242-0.56-0.483-1.118-0.725-1.678c11.024,2.262,22.35,3.051,33.581,2.322c2.528-0.164,5.438-0.637,6.715-2.826
		c1.709-2.931-0.923-6.683-4.029-8.049c-3.106-1.366-6.681-1.406-9.752-2.849c2.824-1.628,6.33-1.104,9.574-1.418
		c3.243-0.315,6.979-2.358,6.829-5.614c-0.142-3.084-3.603-4.799-6.605-5.514c-9.285-2.212-19.318-1.141-27.928,2.982
		c4.014-8.143,4.621-17.899,1.647-26.476c-4.546-0.704-9.296,2.967-9.76,7.544c-0.544-3.072-1.138-6.266-2.984-8.78
		c-1.847-2.515-5.347-4.11-8.173-2.789c-2.361,1.104-3.509,3.778-4.248,6.278c-1.964,6.636-2.499,13.69-1.559,20.547
		c-7.598-3.958-16.324-5.72-24.863-5.019c-0.467,4.716,2.291,9.582,6.576,11.604c-2.982,0.451-5.965,0.903-8.948,1.355
		c-0.553,5.156,4.362,9.148,8.988,11.494c8.825,4.475,18.67,6.906,28.561,7.115c-2.176,14.42-7.356,28.277-14.769,40.846
		c-8.605,14.594-19.968,27.404-32.904,38.3c-3.693,3.111-7.52,6.048-11.451,8.825c0.048-0.079,0.103-0.154,0.15-0.235
		c2.364-3.939,4.235-8.17,5.626-12.548c2.468-7.765,3.821-15.912,3.171-23.981c1.389-2.285,2.732-4.567,4.58-6.521
		c5.473-5.787,14.311-8.496,18.756-15.266c1.807-2.751,2.43-6.546,0.639-9.307c-1.791-2.762-6.406-3.485-8.369-0.844
		c1.406-4.029,2.75-8.726,0.484-12.344c-3.189-5.091-11.371-4.043-15.752,0.068c-4.381,4.11-6.391,10.085-9.605,15.16
		c-2.896-7.794-7.257-15.042-12.786-21.253c-3.755-4.216-8.729-8.205-14.357-7.768s-10.242,7.902-6.333,11.976
		c-3.362-0.883-6.866-1.772-10.274-1.092c-3.409,0.68-6.673,3.435-6.715,6.91c-0.037,3.113,2.368,5.659,4.692,7.732
		c6.848,6.11,14.439,11.386,22.556,15.671c-7.992,0.289-15.948,1.577-23.623,3.826c-2.379,0.696-5.271,2.365-4.709,4.779
		c0.241,1.035,1.095,1.801,1.933,2.455c4.421,3.454,9.692,5.81,15.215,6.8c-2.906,2.598-7.964,2.772-9.561,6.328
		c-1.973,4.396,3.408,8.511,8.067,9.735c13.715,3.601,29.761-0.553,40.098-10.29c0.081-0.076,0.147-0.161,0.228-0.239
		c-0.001,0.027-0.001,0.056-0.002,0.084c-0.227,4.924-1.268,9.736-2.663,14.452c-1.163,3.933-2.661,7.759-4.668,11.341
		c-2.431,4.334-5.456,8.309-8.677,12.083c-6.857,4.071-13.979,7.704-21.304,10.903c-5.425,2.37-10.939,4.51-16.52,6.46
		c-0.248,0.05-0.497,0.093-0.744,0.145c-0.424,0.088-0.767,0.257-1.044,0.474c-14.628,4.992-29.705,8.673-44.891,11.527
		c-21.787,4.096-43.842,6.526-65.886,8.74c-2.779,0.279-5.559,0.555-8.339,0.829c-1.346,0.134-2.18,1.756-1.918,2.97
		c0.31,1.445,1.619,2.053,2.969,1.919c22.456-2.222,44.936-4.482,67.188-8.305c18.214-3.128,36.278-7.351,53.741-13.406
		c9.992-1.974,20.331-2.059,30.348-0.167c9.141,1.726,18.376,4.956,25.739,10.781c0.06,0.048,0.114,0.099,0.174,0.146
		c-9.742,3.708-20.161,4.667-30.741,7.864c-3.448,1.042-7.103,2.378-9.146,5.345c-2.987,4.336-0.939,10.96,3.628,13.582
		c3.635,2.087,8.25,1.813,12.017-0.091c-1.688,1.325-3.09,2.965-3.7,4.996c-0.918,3.051,0.7,6.976,3.835,7.545
		c1.526,0.277,3.073-0.249,4.519-0.813c8.355-3.259,16.106-8.063,22.741-14.097c-0.396,6.703-0.712,13.792,2.414,19.734
		c3.127,5.943,11.033,9.912,16.782,6.441c3.456-2.088,5.232-6.609,4.12-10.491c9.256-0.344,28.236,3.807,25.978-8.737
		c-7.605-9.125-17.506-16.322-28.532-20.741c11.171-2.39,31.491,2.675,32.456-10.785c-2.318-6.486-9.189-11.038-16.066-10.643
		c3.771-0.173,5.713-5.424,3.694-8.614c-8.28-13.086-26.972,9.476-33.62,14.106c-1.757,1.224-3.549,2.265-5.365,3.186
		c-3.755-3.45-8.218-6.19-12.848-8.315c-9.754-4.476-20.785-6.59-31.48-6.762c-0.038-0.001-0.077,0.001-0.115,0
		c7.638-3.315,15.064-7.07,22.213-11.298c0.352-0.096,0.674-0.269,0.923-0.555c6.663-3.991,13.085-8.389,19.213-13.223
		c3.506-2.767,6.907-5.676,10.196-8.713c17.82,1.099,35.842-0.606,53.127-5.092c2.168-0.563,4.323-1.179,6.467-1.829
		c12.869,9.691,31.246,15.141,46.047,19.854c1.521,0.474,3.393,0.859,4.537-0.252c0.774-0.752,0.907-1.935,0.918-3.013
		c0.034-3.703-0.857-7.411-2.574-10.693c6.334,2.294,13.588,1.915,19.646-1.025c2.808-1.362,5.581-3.609,5.947-6.708
		c0.515-4.363-3.846-7.658-7.879-9.402c-6.01-2.6-12.528-4.017-19.075-4.146c5.642-4.529,12.949-6.592,18.586-11.127
		C2619.332,1743.364,2622.725,1734.298,2617.751,1729.045z"/>
	<g>
		<path style="fill:#D3B594;" d="M2267.44,1744.384v-40.453l-231.283-29.092l-231.282,31.55v37.995c0,0-1.951,18.3,68.198,42.479
			c95.925,33.062,251.801,22.181,326.168,0C2270.346,1765.655,2267.44,1744.384,2267.44,1744.384z"/>
		<path style="fill:#BFA388;" d="M2199.071,1786.862c71.104-21.207,68.198-42.479,68.198-42.479v-40.454l-106.037-13.337
			c-0.168,0.101-0.338,0.197-0.505,0.298c-12.159,7.342-23.845,13.948-24.761,29.075c-0.962,15.887,7.699,35.172,0.802,50.363
			c-4.246,9.351-15.406,13.044-25.431,15.276c-76.574,17.052-156.718,6.572-232.972-11.857
			c-23.813-5.755-47.982-12.524-68.025-26.612c-1.648-1.158-3.635-2.322-5.636-3.091v0.339c0,0-1.951,18.3,68.198,42.479
			C1968.828,1819.924,2124.704,1809.043,2199.071,1786.862z"/>
		<path style="fill:#D3B594;" d="M2507.371,1286.347h-473.526h-468.927c0,0-7.248,96.706,46.812,213.431
			c81.076,175.061,193.146,206.611,193.146,206.611l228.97,4.422l228.97-4.422c0,0,112.068-31.55,193.146-206.611
			C2510.02,1383.053,2507.371,1286.347,2507.371,1286.347z"/>
		<path style="fill:#BFA388;" d="M2507.209,1286.347h-168.175c0,0,21.85,98.247-37.769,212.231
			c-65.978,126.145-128.496,161.241-204.963,187.256c-94.879,32.278-205.969,24.175-205.969,24.175s111.393,25.448,200.707,25.448
			c88.823,0.001,171.611-29.068,171.611-29.068s112.068-31.55,193.146-206.611
			C2509.857,1383.053,2507.209,1286.347,2507.209,1286.347z"/>
		<path style="fill:#F7D3B0;" d="M1564.918,1286.347c4.135,70.334,177.459,131.896,471.239,131.896
			c303.347,0,468.816-46.763,471.214-131.896c2.398-85.133-161.871-147.578-464.032-146.284
			C1788.859,1141.151,1575.709,1159.247,1564.918,1286.347L1564.918,1286.347z"/>
		<path style="fill:#E2BFA3;" d="M1585.32,1285.569c3.956,62.751,169.778,117.675,450.843,117.675
			c290.218,0,448.524-41.721,450.818-117.675c2.294-75.953-154.865-131.665-443.948-130.511
			C1799.569,1156.03,1595.645,1172.175,1585.32,1285.569L1585.32,1285.569z"/>
		<path style="opacity:0.38;fill:#FFFFFF;" d="M1678.144,1434.666c-4.874,12.971-0.737,27.456,4.127,40.43
			c13.329,35.557,31.998,68.93,53.116,100.488c15.188,22.697,34.194,46.176,61.029,51.242c9.42,1.778,19.561,0.983,27.947-3.659
			c8.387-4.644,14.693-13.485,14.924-23.068c0.234-9.756-5.442-18.526-10.573-26.827c-12.544-20.296-23.116-42.079-28.395-65.347
			c-3.507-15.46-4.798-31.86-12.731-45.586C1773.98,1438.801,1693.431,1393.989,1678.144,1434.666z"/>
		<path style="opacity:0.38;fill:#FFFFFF;" d="M1840.459,1721.787c-2.217,0.069-4.527,0.283-6.408,1.459
			c-3.92,2.451-4.393,8.339-2.152,12.383c2.241,4.043,6.402,6.605,10.504,8.738c17.014,8.848,35.926,13.366,54.794,16.79
			c7.24,1.314,14.966,2.431,21.748-0.424c6.782-2.855,11.763-11.234,8.369-17.763c-3.224-6.202-11.433-7.324-18.393-7.967
			C1886.217,1732.907,1862.68,1721.101,1840.459,1721.787z"/>
		<path style="fill:#CEAD97;" d="M1585.32,1285.789c3.171,50.304,110.367,95.575,297.559,111.557
			c-10.05-6.818-19.827-14.037-29.286-21.651c-57.919-46.62-104.383-107.535-133.632-175.918c-2.46-5.752-5.145-11.788-7.698-17.966
			C1637.828,1200.66,1590.174,1232.475,1585.32,1285.789z"/>
	</g>
	<path style="fill:#DD4E73;" d="M2471.303,1321.58c-45.314-54.852-193.333-91.745-429.129-90.805
		c-207.746,0.83-386.698,12.709-441.15,86.627c48.671,48.387,202.178,85.842,434.279,85.842
		C2275.762,1403.244,2425.663,1374.603,2471.303,1321.58z"/>
	<path style="fill:#F4C42C;" d="M1729.098,1270.275c-9.842,0.144-20.053,5.425-23.791,14.531c-1.163,2.833-1.644,6.15-0.318,8.911
		c1.015,2.116,2.949,3.633,4.914,4.917c10.647,6.957,23.686,9.175,36.378,10.01c6.165,0.406,12.494,0.504,18.362-1.432
		c4.75-1.566,9.579-5.466,9.146-10.449c-0.233-2.681-1.96-4.984-3.798-6.949C1760.297,1279.454,1743.443,1270.066,1729.098,1270.275
		z"/>
	<path style="fill:#F4C42C;" d="M2039.265,1356.778c-6.609,1.117-13.673,2.787-18.054,7.859c-0.958,1.109-1.779,2.417-1.928,3.875
		c-0.406,3.984,4.029,6.604,7.872,7.729c5.311,1.555,10.815,2.314,16.297,3.07c13.75,1.895,27.555,3.794,41.435,3.752
		c4.385-0.013,8.911-0.254,12.857-2.164s7.194-5.881,6.991-10.261c-0.165-3.53-2.474-6.62-5.145-8.937
		C2083.954,1348.146,2057.662,1353.669,2039.265,1356.778z"/>
	<path style="fill:#F4C42C;" d="M1959.899,1257.416c-0.702,3.51,2.263,6.599,5.036,8.86c9.848,8.033,20.712,14.819,32.251,20.146
		c4.678,2.158,10.118,4.086,14.842,2.029c3.819-1.662,6.216-5.662,7.019-9.749c0.803-4.088,0.257-8.307-0.34-12.43
		c-0.342-2.364-0.709-4.76-1.679-6.944c-2.919-6.573-10.466-9.682-17.509-11.138
		C1990.396,1246.306,1962.697,1243.441,1959.899,1257.416z"/>
	<path style="fill:#F4C42C;" d="M2235.596,1264.517c-0.767,0.487-1.556,1.043-1.919,1.875c-0.729,1.67,0.56,3.518,1.933,4.714
		c4.813,4.193,11.351,5.711,17.648,6.75c15.785,2.604,31.834,3.076,47.826,3.543c5.831,0.17,12.977-0.417,15.463-5.695
		c1.449-3.076,0.62-6.873-1.383-9.62c-2.004-2.747-5.007-4.598-8.091-6.029C2287.802,1251.114,2253.374,1253.226,2235.596,1264.517z
		"/>
	<path style="fill:#F4C42C;" d="M2216.563,1320.432c-1.964,1.214-4.013,3.255-3.373,5.473c0.29,1.005,1.087,1.772,1.871,2.465
		c4.194,3.7,8.943,6.707,13.671,9.696c9.45,5.979,18.901,11.956,28.353,17.934c3.974,2.515,8.933,5.097,13.115,2.946
		c4.148-2.132,4.967-7.621,5.119-12.283c0.262-8.014-0.263-16.888-5.85-22.639c-4.017-4.135-9.895-5.804-15.548-6.928
		C2242.078,1314.74,2227.274,1313.812,2216.563,1320.432z"/>
	<g>
		<path style="fill:#FF872E;" d="M1822.502,1290.93c1.748,0.583,115.848,39.146,115.848,39.146s30.199-33.582,0-46.487
			C1887.004,1261.646,1822.502,1290.93,1822.502,1290.93z"/>
		<path style="fill:#E2752B;" d="M1854.733,1301.817c0,0,19.419-14.187,47.601-8.589s6.292,26.802,6.292,26.802L1854.733,1301.817z"
			/>
	</g>
	<g>
		<path style="fill:#FF872E;" d="M2191.619,1317.324c-1.632-0.855-108.064-57.227-108.064-57.227s-35.196,28.302-7.459,45.886
			C2123.255,1335.88,2191.619,1317.324,2191.619,1317.324z"/>
		<path style="fill:#E2752B;" d="M2161.553,1301.406c0,0-21.443,10.887-48.362,0.84c-26.918-10.047-1.909-27.464-1.909-27.464
			L2161.553,1301.406z"/>
	</g>
	<g>
		<path style="fill:#FF872E;" d="M1875.074,1340.994c-1.779-0.304-118.002-20.546-118.002-20.546s-27.888,28.563,3.051,36.012
			C1812.725,1369.124,1875.074,1340.994,1875.074,1340.994z"/>
		<path style="fill:#E2752B;" d="M1842.244,1335.281c0,0-18.42,12.628-46.867,10.671c-28.449-1.958-8.028-20.23-8.028-20.23
			L1842.244,1335.281z"/>
	</g>
	<g>
		<path style="fill:#FF872E;" d="M2311.312,1315.713c1.234,0.487,81.84,32.796,81.84,32.796s17.883-35.101-3.665-46.343
			C2352.852,1283.052,2311.312,1315.713,2311.312,1315.713z"/>
		<path style="fill:#E2752B;" d="M2334.081,1324.834c0,0,12.083-15.187,31.683-11.121s6.39,26.38,6.39,26.38L2334.081,1324.834z"/>
	</g>
	<polygon style="fill:#629B4B;" points="1816.883,1246.595 1773.815,1279.143 1799.361,1284.931 1857.579,1250.452 
		1819.709,1246.595 	"/>
	<path style="fill:#629B4B;" d="M1668.795,1300.191c-1.131,1.695-31.088,30.376-26.565,29.884
		c4.521-0.492,80.261,7.466,80.261,7.466l11.609-17.093L1668.795,1300.191z"/>
	<path style="fill:#629B4B;" d="M1970.059,1342.583c-2.261,0.565-73.479,10.406-73.479,10.406l-21.506,20.116h134.55
		L1970.059,1342.583z"/>
	<path style="fill:#629B4B;" d="M2003.406,1302.754c2.262,0.829,84.784,19.583,84.784,19.583l-7.913,11.203
		c0,0-88.74-5.463-88.175-7.818C1992.668,1323.365,2003.406,1302.754,2003.406,1302.754z"/>
	<path style="fill:#629B4B;" d="M2040.145,1244.234l10.176,10.266c0,0,67.827-9.135,66.131-10.266
		c-1.695-1.131-15.74-7.913-15.74-7.913L2040.145,1244.234z"/>
	<path style="fill:#629B4B;" d="M2146.974,1340.093c0,0-16.987,18.166-15.842,19.654s94.407,23.318,94.407,23.318l24.87-15.038
		L2146.974,1340.093z"/>
	<path style="fill:#629B4B;" d="M2158.843,1254.5l23.74,35.078c0,0,40.131-4.648,38.435-4.648c-1.695,0-43.521-30.431-43.521-30.431
		H2158.843z"/>
	<path style="fill:#629B4B;" d="M2317.278,1335.939c-0.173,0.991-25.607,25.982-23.912,25.64c1.696-0.344,17.945,6.448,17.945,6.448
		l37.446-21.869L2317.278,1335.939z"/>
	<polygon style="fill:#629B4B;" points="2348.758,1267.961 2331.802,1274.782 2334.081,1284.931 2391.15,1289.328 	"/>
	<path style="fill:#B74264;" d="M1965.586,1295.076c-1.938,2.826-2.094,6.492-1.854,9.91s0.801,6.893,0.053,10.236
		c-0.893,3.988-3.727,7.493-7.438,9.201c-1.49,0.686-3.12,1.104-4.468,2.038s-2.382,2.618-1.898,4.186
		c0.594,1.925,2.99,2.565,5.004,2.606c5.535,0.112,10.871-1.914,15.972-4.067c5.75-2.427,11.577-5.17,15.8-9.766
		c4.222-4.597,6.504-11.497,4.059-17.239C1987.771,1295.041,1971.229,1286.85,1965.586,1295.076z"/>
	<path style="fill:#B74264;" d="M1807.146,1300.84c0.504,1.064,1.443,1.855,2.411,2.526c4.014,2.784,8.856,4.049,13.572,5.321
		c12.468,3.364,24.827,7.132,37.052,11.296c1.756,0.599,3.883,1.774,3.607,3.609c-10.546,4.498-22.622,2.381-33.811-0.12
		c-11.531-2.577-22.988-5.484-34.354-8.718c-3.328-0.947-6.901-2.096-8.908-4.915c-2.558-3.595-1.527-8.869,1.377-12.19
		s7.235-5.028,11.521-6.08c4.7-1.154,9.891-1.921,14.716-1.413C1812.337,1293.305,1804.532,1295.314,1807.146,1300.84z"/>
	<path style="fill:#B74264;" d="M2269.188,1309.391c5.672,2.175,11.532,5.249,14.2,10.706c2.783,5.692,1.376,12.515-0.806,18.464
		c-0.396,1.082-0.822,2.25-0.504,3.358c0.68,2.365,3.938,2.596,6.35,2.098c5.646-1.167,11.123-3.768,14.974-8.059
		c3.85-4.292,5.871-10.399,4.511-16.002c-0.629-2.586-1.928-4.969-3.477-7.132c-5.93-8.277-15.543-13.445-25.535-15.402
		c-9.991-1.957-20.363-0.944-30.293,1.308c-1.376,0.312-3.072,1.058-2.984,2.467
		C2245.849,1304.803,2266.1,1308.206,2269.188,1309.391z"/>
	<path style="fill:#B74264;" d="M2119.002,1371.979c-0.781,1.342-0.769,2.982-1.142,4.489c-1.115,4.512-5.574,7.406-10.002,8.822
		c-4.427,1.415-9.175,1.831-13.411,3.743c-1.465,0.66-3.025,1.771-3.067,3.377c-0.056,2.104,2.43,3.257,4.509,3.584
		c5.447,0.857,10.994-0.119,16.438-1.003c23.779-3.86,47.841-5.982,71.929-6.34c2.173-0.032,4.689-0.221,5.938-1.999
		c1.796-2.554-0.551-6.063-3.226-7.673c-7.132-4.295-16.125-2.806-24.446-2.598c-8.4,0.21-16.83-1.063-24.801-3.718
		C2133.357,1371.211,2122.344,1366.239,2119.002,1371.979z"/>
	<path style="fill:#B74264;" d="M2404.703,1298.455c0.404,0.641,1.065,1.069,1.722,1.448c4.477,2.583,9.936,3.966,13.062,8.082
		c2.949,3.883,2.993,9.403,1.203,13.938c-1.789,4.535-5.151,8.259-8.66,11.645c-1.803,1.741-3.84,3.99-3.149,6.4
		c0.465,1.622,2.11,2.681,3.774,2.957s3.361-0.081,5.01-0.442c7.337-1.609,14.885-3.438,20.895-7.945
		c6.011-4.507,10.115-12.414,7.945-19.606c-1.53-5.07-5.758-8.81-9.949-12.047c-5.471-4.226-11.511-8.232-18.273-10.004
		C2415.798,1292.229,2400.174,1291.294,2404.703,1298.455z"/>
	<g>
		<path style="fill:#629B4B;" d="M2483.859,1852.283c1.389,0.783,3.137,1.553,4.488,0.707c0.915-0.572,1.294-1.701,1.53-2.754
			c0.812-3.613,0.719-7.426-0.27-10.995c5.71,3.573,12.881,4.727,19.423,3.124c3.031-0.741,6.215-2.356,7.223-5.309
			c1.421-4.158-2.149-8.295-5.727-10.848c-5.33-3.804-11.406-6.559-17.779-8.061c6.467-3.243,14.045-3.725,20.508-6.975
			c6.463-3.249,11.685-11.401,7.926-17.582c-2.604-4.281-8.154-5.506-13.096-6.337c3.387-0.595,5.771-4.355,5.101-7.728
			c-0.671-3.373-4.074-5.894-7.513-5.808c-2.551,0.063-4.896,1.339-7.098,2.628c-11.164,6.538-21.605,14.308-31.074,23.123
			c2.667-4.993,3.274-11.048,1.652-16.472c-1.431-4.786-5.29-9.431-10.285-9.478c-4.996-0.046-9.006,7.005-5.238,10.286
			c-4.393-3.818-10.02-6.192-15.82-6.677c-2.67-0.223-5.521-0.005-7.732,1.509c-10.677,7.309,4.982,34.222,10.58,41.67
			C2450.907,1833.946,2469.331,1843.965,2483.859,1852.283z"/>
		<path style="fill:#629B4B;" d="M2404.717,1772.745c2.344-2.311,3.75-5.889,2.579-8.965s-5.531-4.753-8.005-2.582
			c2.221-3.645,4.522-7.955,3.066-11.967c-2.05-5.647-10.268-6.341-15.415-3.242c-5.146,3.099-8.367,8.518-12.576,12.805
			c-1.194-8.229-3.935-16.231-8.036-23.465c-2.784-4.911-6.811-9.856-12.406-10.61c-5.594-0.755-11.673,5.574-8.707,10.378
			c-3.101-1.569-6.34-3.175-9.815-3.226s-7.245,1.956-8.017,5.345c-0.689,3.036,1.128,6.03,2.963,8.545
			c5.412,7.413,11.728,14.165,18.762,20.06c-7.875-1.396-15.924-1.808-23.9-1.222c-2.472,0.182-5.649,1.205-5.607,3.684
			c0.019,1.063,0.692,1.991,1.374,2.807c3.597,4.306,8.256,7.716,13.446,9.844c-3.386,1.93-8.367,1.038-10.676,4.179
			c-2.853,3.883,1.544,9.037,5.843,11.213c12.652,6.4,29.213,5.711,41.364-1.638c4.945-2.99,7.706-7.856,12.22-10.956
			C2389.739,1779.222,2398.948,1778.431,2404.717,1772.745z"/>
		<path style="fill:#629B4B;" d="M2406.854,1854.803c1.304,3.543-1.696,8.269-5.421,7.646c6.807,1.058,12.568,6.951,13.473,13.779
			c-3.771,12.957-22.574,3.737-33.998,3.727c9.853,6.638,18.02,15.754,23.539,26.273c-0.426,12.737-18.111,4.693-27.233,3.085
			c0.272,4.028-2.414,8.076-6.231,9.391c-6.35,2.186-13.246-3.355-15.055-9.822s-0.01-13.33,1.785-19.802
			c-7.755,4.506-16.342,7.575-25.195,9.006c-1.531,0.248-3.154,0.437-4.588-0.154c-2.945-1.216-3.703-5.393-2.165-8.183
			c1.538-2.79,4.624-4.364,7.679-5.269c-4.654,2.463-10.865,2.249-14.779-1.274c-3.914-3.522-4.525-10.43-0.693-14.041
			c2.621-2.471,6.475-3.009,10.064-3.304c15.037-1.233,28.906,1.569,42.986-4.329
			C2378.494,1858.401,2401.508,1840.27,2406.854,1854.803z"/>
		<path style="fill:#629B4B;" d="M2443.229,1748.86c10.463,4.656,21.562,7.881,32.891,9.556c2.506,0.371,5.451,0.52,7.158-1.352
			c2.287-2.507,0.503-6.729-2.248-8.717c-2.75-1.987-6.236-2.777-8.936-4.833c3.103-0.998,6.42,0.251,9.658,0.624
			c3.237,0.374,7.319-0.839,7.856-4.054c0.509-3.044-2.515-5.448-5.3-6.778c-8.614-4.113-18.648-5.173-27.932-2.951
			c5.635-7.117,8.277-16.528,7.172-25.538c-4.297-1.644-9.712,0.947-11.126,5.325c0.113-3.118,0.203-6.364-1.074-9.211
			s-4.363-5.143-7.405-4.443c-2.54,0.583-4.223,2.957-5.472,5.246c-3.313,6.075-5.318,12.86-5.839,19.761
			c-6.598-5.466-14.76-9.021-23.255-10.129c-1.446,4.512,0.228,9.849,3.992,12.727c-3.011-0.185-6.022-0.37-9.033-0.555
			c-1.624,4.925,2.343,9.861,6.372,13.126c9.531,7.72,21.25,12.707,33.422,14.221c-0.287-1.447-0.574-2.893-0.861-4.34
			L2443.229,1748.86z"/>
		<g>
			<path style="fill:#629B4B;" d="M2439.087,1743.992c-4.967,15.85-13.736,30.27-24.967,42.46
				c-11.479,12.461-25.28,22.599-40.216,30.534c-15.521,8.244-32.218,13.958-49.424,17.449c-21.592,4.383-43.712,5.482-65.696,4.915
				c-22.161-0.571-44.234-2.828-66.251-5.294c-2.776-0.312-5.552-0.626-8.327-0.94c-1.344-0.153-2.5,1.258-2.5,2.5
				c0,1.478,1.152,2.347,2.5,2.5c22.423,2.545,44.875,5.056,67.434,5.993c22.44,0.933,45.007,0.246,67.181-3.546
				c18.266-3.124,36.021-8.563,52.673-16.739c15.52-7.62,30.031-17.568,42.284-29.801c12.152-12.132,21.958-26.573,28.049-42.663
				c0.754-1.992,1.445-4.007,2.082-6.039C2444.873,1742.244,2440.047,1740.928,2439.087,1743.992L2439.087,1743.992z"/>
		</g>
		<g>
			<path style="fill:#629B4B;" d="M2370.567,1875.981c-1.838-9.726-8.549-17.515-16.274-23.289
				c-8.597-6.425-18.937-10.81-29.358-13.224c-6.13-1.421-12.429-2.159-18.72-2.203c-3.218-0.021-3.222,4.979,0,5
				c10.448,0.072,20.852,2.182,30.488,6.236c8.574,3.607,16.925,8.706,22.9,15.948c3.076,3.728,5.244,8.106,6.143,12.86
				c0.251,1.327,1.85,2.082,3.075,1.746C2370.213,1878.674,2370.819,1877.313,2370.567,1875.981L2370.567,1875.981z"/>
		</g>
		<g>
			<path style="fill:#629B4B;" d="M2349.943,1832.709c3.914-2.981,7.74-6.099,11.108-9.698c3.139-3.355,5.856-7.099,8.136-11.086
				c5.464-9.56,9.099-20.227,8.482-31.358c-0.348-6.289-1.992-12.434-5.088-17.934c-1.578-2.805-5.898-0.287-4.317,2.523
				c5.021,8.923,5.515,19.658,2.941,29.426c-1.255,4.767-3.284,9.253-5.639,13.57c-1.964,3.602-4.231,7.026-6.946,10.106
				c-3.337,3.785-7.193,7.081-11.201,10.133c-1.072,0.816-1.637,2.154-0.896,3.42
				C2347.141,1832.868,2348.863,1833.532,2349.943,1832.709L2349.943,1832.709z"/>
		</g>
		<g>
			<path style="fill:#629B4B;" d="M2451.395,1817.3c-17.382,2.312-35.13,1.931-52.371-1.302c-4.889-0.917-9.731-2.059-14.52-3.404
				c-3.104-0.871-4.428,3.951-1.329,4.822c17.228,4.841,35.247,6.97,53.128,6.213c5.049-0.215,10.084-0.663,15.092-1.329
				c1.338-0.179,2.5-1.022,2.5-2.5C2453.895,1818.587,2452.742,1817.12,2451.395,1817.3L2451.395,1817.3z"/>
		</g>
	</g>
</g>
</svg>
